<svg width="70" height="49" viewBox="0 0 70 49" fill="none" xmlns="http://www.w3.org/2000/svg">
<g clip-path="url(#clip0)">
<path d="M18.2926 38.2613C16.2134 38.2613 14.2193 37.4367 12.7491 35.969C11.2789 34.5013 10.4529 32.5106 10.4529 30.435C10.4529 28.3593 11.2789 26.3686 12.7491 24.9009C14.2193 23.4332 16.2134 22.6086 18.2926 22.6086C22.1048 22.6086 25.0207 25.5558 25.8622 28.3936C25.9773 28.782 26.0561 29.1802 26.0975 29.5831H36.5638C36.4257 26.6109 35.5617 23.7175 34.047 21.1549C32.5324 18.5923 30.4131 16.4383 27.8737 14.8806V15.6519H26.1315V13.9127C26.1315 13.9127 25.9199 13.8233 25.6394 13.7073C25.3589 13.5913 25.0843 13.4716 24.8016 13.3645C24.6344 13.2973 24.4863 13.2404 24.3872 13.2049C24.2688 13.1628 24.086 13.1052 23.8847 13.0439C23.6088 12.9562 23.3301 12.8744 23.0484 12.7986L22.7523 12.7143V12.721C21.2931 12.3567 19.7945 12.1728 18.2904 12.1735C8.1875 12.1735 -0.0022583 20.3493 -0.0022583 30.435C-0.0022583 40.5206 8.18972 48.6956 18.2926 48.6956C28.0883 48.6956 36.0857 41.0119 36.5615 31.3467H26.0768C25.8532 33.2511 24.937 35.0073 23.502 36.2819C22.0671 37.5566 20.2133 38.2609 18.2926 38.2613Z" fill="white"/>
<path d="M27.8737 6.95673H26.1316V8.69591H27.8737V6.95673Z" fill="white"/>
<path d="M29.6159 0H27.8737V1.73918H29.6159V0Z" fill="white"/>
<path d="M33.1002 1.7392H31.358V3.47838H33.1002H34.8423V1.7392H33.1002Z" fill="white"/>
<path d="M27.8737 3.47839H26.1316V5.21758H27.8737H29.6159V3.47839H27.8737Z" fill="white"/>
<path d="M36.5845 3.47839H34.8423V5.21758H36.5845V3.47839Z" fill="white"/>
<path d="M34.8424 5.21753H33.1002V6.95671H34.8424V5.21753Z" fill="white"/>
<path d="M31.3581 6.95671V5.21753H29.6159V6.95671V8.6959V10.4351H31.3581V8.6959H33.1002V6.95671H31.3581Z" fill="white"/>
<path d="M34.8424 8.69592H33.1002V10.4351H34.8424V8.69592Z" fill="white"/>
<path d="M29.6159 12.1743V10.4351H27.8737H26.1316V12.1743V13.9127H27.8737V12.1743H29.6159Z" fill="white"/>
<path d="M34.8423 13.9127H36.5845V12.1743V10.4351H34.8423V12.1743V13.9127Z" fill="white"/>
<path d="M31.3581 13.9128H33.1002V12.1743H31.3581H29.6159V13.9128H31.3581Z" fill="white"/>
<path d="M33.1002 15.6519V17.3911H31.3581V15.6519H29.6159V13.9127H27.8737V15.6519H26.1316V17.3911V19.1303V20.8695V22.6086V24.3478V26.087V27.8262V29.5654H27.8737H29.6159H31.3581H33.1002H34.8424H36.5845V27.8262V26.087V24.3478V22.6086V20.8695V19.1303V17.3911V15.6519H34.8424V13.9127H33.1002V15.6519Z" fill="white"/>
<path d="M26.1316 13.9128V29.5654L22.762 12.7314C22.762 12.7314 23.952 13.052 24.4316 13.2072C24.8416 13.3394 26.1316 13.9128 26.1316 13.9128Z" fill="white"/>
<path d="M38.3452 10.458H40.9014C41.4287 10.4474 41.9517 10.5549 42.4319 10.7727C42.8551 10.9661 43.2128 11.2782 43.4613 11.6711C43.7019 12.09 43.8284 12.5644 43.8284 13.0472C43.8284 13.53 43.7019 14.0044 43.4613 14.4232C43.2131 14.8163 42.8553 15.1286 42.4319 15.3216C41.9517 15.5394 41.4287 15.647 40.9014 15.6364H38.3452V10.458ZM40.8274 14.2755C41.2029 14.2755 41.5028 14.1681 41.7273 13.9534C41.9518 13.7386 42.0643 13.4367 42.0648 13.0476C42.0648 12.6575 41.9523 12.3553 41.7273 12.141C41.5023 11.9268 41.2024 11.8196 40.8274 11.8196H40.094V14.2755H40.8274Z" fill="white"/>
<path d="M44.4656 10.458H46.2145V15.6364H44.4656V10.458Z" fill="white"/>
<path d="M50.4899 12.9079H52.0086V15.0978C51.6826 15.3188 51.3219 15.4839 50.9414 15.5861C50.5533 15.6969 50.1519 15.7541 49.7483 15.7561C49.2314 15.7645 48.7202 15.6465 48.2593 15.4125C47.8311 15.1948 47.4723 14.8622 47.2232 14.4521C46.9776 14.0248 46.8483 13.5409 46.8483 13.0483C46.8483 12.5557 46.9776 12.0717 47.2232 11.6445C47.4737 11.2323 47.836 10.8993 48.2682 10.6841C48.7382 10.4491 49.2582 10.331 49.7839 10.3398C50.2521 10.332 50.7171 10.4189 51.1508 10.5954C51.5417 10.7565 51.8865 11.0119 52.1544 11.3387L51.0361 12.322C50.71 11.9423 50.3221 11.7524 49.8727 11.7524C49.4873 11.7524 49.1809 11.8684 48.9535 12.1004C48.726 12.3324 48.6126 12.6481 48.6131 13.0476C48.6131 13.4367 48.7253 13.7497 48.9498 13.9866C49.1743 14.2235 49.4745 14.342 49.8505 14.342C50.0691 14.3425 50.2857 14.2998 50.4877 14.2164L50.4899 12.9079Z" fill="white"/>
<path d="M52.7576 10.458H54.5056V15.6364H52.7576V10.458Z" fill="white"/>
<path d="M56.4772 11.8137H54.9556V10.458H59.7424V11.8123H58.223V15.6364H56.475L56.4772 11.8137Z" fill="white"/>
<path d="M63.4717 14.735H61.5009L61.1523 15.6379H59.3761L61.6415 10.458H63.3607L65.6283 15.6364H63.8203L63.4717 14.735ZM62.9907 13.479L62.4867 12.1772L61.9864 13.4776L62.9907 13.479Z" fill="white"/>
<path d="M65.9088 10.458H67.6576V14.2829H69.9992V15.6364H65.9088V10.458Z" fill="white"/>
<path d="M39.7528 22.3648C39.3245 22.1474 38.9656 21.8147 38.7167 21.4044C38.4718 20.9776 38.3429 20.4943 38.3429 20.0025C38.3429 19.5106 38.4718 19.0273 38.7167 18.6006C38.9655 18.1902 39.3244 17.8575 39.7528 17.6401C40.2106 17.4064 40.7188 17.2881 41.233 17.2958C41.6964 17.2876 42.1561 17.3785 42.5814 17.5625C42.9666 17.7319 43.3026 17.9957 43.5583 18.3294L42.4548 19.3135C42.1336 18.9086 41.7557 18.7065 41.321 18.7069C40.9554 18.7069 40.6614 18.8239 40.4388 19.0579C40.2163 19.2918 40.1053 19.6063 40.1058 20.0014C40.1058 20.3954 40.2168 20.7096 40.4388 20.9441C40.6609 21.1785 40.9549 21.2958 41.321 21.2958C41.7557 21.2958 42.1336 21.0936 42.4548 20.6892L43.5583 21.6733C43.3027 22.0079 42.9663 22.2725 42.5807 22.4424C42.1553 22.6259 41.6955 22.7165 41.2322 22.7084C40.7184 22.7158 40.2106 22.5979 39.7528 22.3648Z" fill="white"/>
<path d="M45.1695 22.3611C44.7351 22.138 44.3707 21.7998 44.1163 21.3835C43.8619 20.9672 43.7274 20.489 43.7274 20.0013C43.7274 19.5137 43.8619 19.0355 44.1163 18.6192C44.3707 18.2029 44.7351 17.8647 45.1695 17.6416C45.6377 17.4126 46.1523 17.2936 46.6737 17.2936C47.1951 17.2936 47.7096 17.4126 48.1779 17.6416C48.612 17.8648 48.9762 18.2032 49.2304 18.6194C49.4847 19.0357 49.6191 19.5138 49.6191 20.0013C49.6191 20.4889 49.4847 20.967 49.2304 21.3833C48.9762 21.7995 48.612 22.1378 48.1779 22.3611C47.7095 22.5896 47.195 22.7084 46.6737 22.7084C46.1523 22.7084 45.6379 22.5896 45.1695 22.3611ZM47.2624 21.1369C47.4409 21.0276 47.5858 20.8715 47.6813 20.6855C47.7836 20.4719 47.8367 20.2381 47.8367 20.0013C47.8367 19.7646 47.7836 19.5308 47.6813 19.3172C47.586 19.1311 47.441 18.9749 47.2624 18.8658C47.0836 18.7617 46.8803 18.7069 46.6733 18.7069C46.4663 18.7069 46.263 18.7617 46.0842 18.8658C45.9058 18.9749 45.7611 19.1311 45.6661 19.3172C45.5638 19.5308 45.5107 19.7646 45.5107 20.0013C45.5107 20.2381 45.5638 20.4719 45.6661 20.6855C45.7613 20.8714 45.906 21.0276 46.0842 21.1369C46.263 21.2409 46.4663 21.2958 46.6733 21.2958C46.8803 21.2958 47.0836 21.2409 47.2624 21.1369Z" fill="white"/>
<path d="M51.4528 22.3611C51.0186 22.1378 50.6545 21.7995 50.4003 21.3833C50.146 20.967 50.0115 20.4889 50.0115 20.0013C50.0115 19.5138 50.146 19.0357 50.4003 18.6194C50.6545 18.2032 51.0186 17.8648 51.4528 17.6416C51.9211 17.4126 52.4356 17.2936 52.957 17.2936C53.4784 17.2936 53.9929 17.4126 54.4612 17.6416C54.8953 17.8648 55.2595 18.2032 55.5137 18.6194C55.7679 19.0357 55.9024 19.5138 55.9024 20.0013C55.9024 20.4889 55.7679 20.967 55.5137 21.3833C55.2595 21.7995 54.8953 22.1378 54.4612 22.3611C53.9928 22.5896 53.4783 22.7084 52.957 22.7084C52.4357 22.7084 51.9212 22.5896 51.4528 22.3611ZM53.5494 21.1369C53.7279 21.0276 53.8728 20.8715 53.9683 20.6855C54.0706 20.4719 54.1237 20.2381 54.1237 20.0013C54.1237 19.7646 54.0706 19.5308 53.9683 19.3172C53.873 19.1311 53.728 18.9749 53.5494 18.8658C53.3706 18.7617 53.1673 18.7069 52.9603 18.7069C52.7533 18.7069 52.55 18.7617 52.3712 18.8658C52.1926 18.9749 52.0476 19.1311 51.9523 19.3172C51.85 19.5308 51.7969 19.7646 51.7969 20.0013C51.7969 20.2381 51.85 20.4719 51.9523 20.6855C52.0478 20.8715 52.1927 21.0276 52.3712 21.1369C52.55 21.2409 52.7533 21.2958 52.9603 21.2958C53.1673 21.2958 53.3706 21.2409 53.5494 21.1369Z" fill="white"/>
<path d="M60.2709 17.6489C60.6079 17.7923 60.8954 18.0314 61.0974 18.3366C61.2995 18.6417 61.4072 18.9994 61.4072 19.3652C61.4072 19.731 61.2995 20.0887 61.0974 20.3939C60.8954 20.699 60.6079 20.9381 60.2709 21.0815C59.8746 21.2469 59.448 21.3274 59.0186 21.3179H58.2704V22.5902H56.5216V17.4118H59.0186C59.4481 17.4022 59.8748 17.483 60.2709 17.6489ZM59.4412 19.8122C59.5553 19.6911 59.6188 19.5311 59.6188 19.3648C59.6188 19.1986 59.5553 19.0386 59.4412 18.9175C59.3221 18.8111 59.1452 18.7586 58.9076 18.7586H58.2704V19.9718H58.9076C59.1445 19.9718 59.3223 19.9186 59.4412 19.8122Z" fill="white"/>
<path d="M48.1136 24.4031L45.8632 29.4699H45.3333L43.0829 24.4031H43.6637L45.6092 28.804L47.5692 24.4031H48.1136Z" fill="white"/>
<path d="M40.1932 24.8472H38.3704V24.3737H42.5644V24.8472H40.7416V29.5521H40.1932V24.8472Z" fill="white"/>
</g>
<defs>
<clipPath id="clip0">
<rect width="70" height="48.6957" fill="white"/>
</clipPath>
</defs>
</svg>
