<svg width="335" height="58" viewBox="0 0 335 58" fill="none" xmlns="http://www.w3.org/2000/svg">
<path d="M5.052 12.12C4.196 12.12 3.424 11.936 2.736 11.568C2.048 11.192 1.508 10.676 1.116 10.02C0.724 9.356 0.528 8.616 0.528 7.8C0.528 6.984 0.724 6.248 1.116 5.592C1.508 4.928 2.048 4.412 2.736 4.044C3.424 3.668 4.196 3.48 5.052 3.48C5.908 3.48 6.68 3.668 7.368 4.044C8.056 4.412 8.596 4.924 8.988 5.58C9.38 6.236 9.576 6.976 9.576 7.8C9.576 8.624 9.38 9.364 8.988 10.02C8.596 10.676 8.056 11.192 7.368 11.568C6.68 11.936 5.908 12.12 5.052 12.12ZM5.052 10.752C5.612 10.752 6.116 10.628 6.564 10.38C7.012 10.124 7.364 9.772 7.62 9.324C7.876 8.868 8.004 8.36 8.004 7.8C8.004 7.24 7.876 6.736 7.62 6.288C7.364 5.832 7.012 5.48 6.564 5.232C6.116 4.976 5.612 4.848 5.052 4.848C4.492 4.848 3.988 4.976 3.54 5.232C3.092 5.48 2.74 5.832 2.484 6.288C2.228 6.736 2.1 7.24 2.1 7.8C2.1 8.36 2.228 8.868 2.484 9.324C2.74 9.772 3.092 10.124 3.54 10.38C3.988 10.628 4.492 10.752 5.052 10.752ZM12.5136 6.528C12.9456 5.856 13.7056 5.52 14.7936 5.52V6.948C14.6656 6.924 14.5496 6.912 14.4456 6.912C13.8616 6.912 13.4056 7.084 13.0776 7.428C12.7496 7.764 12.5856 8.252 12.5856 8.892V12H11.0856V5.592H12.5136V6.528ZM22.3674 5.592V11.028C22.3674 13.284 21.2154 14.412 18.9114 14.412C18.2954 14.412 17.7114 14.332 17.1594 14.172C16.6074 14.02 16.1514 13.796 15.7914 13.5L16.4634 12.372C16.7434 12.604 17.0954 12.788 17.5194 12.924C17.9514 13.068 18.3874 13.14 18.8274 13.14C19.5314 13.14 20.0474 12.98 20.3754 12.66C20.7034 12.34 20.8674 11.852 20.8674 11.196V10.86C20.6114 11.14 20.2994 11.352 19.9314 11.496C19.5634 11.64 19.1594 11.712 18.7194 11.712C18.1114 11.712 17.5594 11.584 17.0634 11.328C16.5754 11.064 16.1874 10.696 15.8994 10.224C15.6194 9.752 15.4794 9.212 15.4794 8.604C15.4794 7.996 15.6194 7.46 15.8994 6.996C16.1874 6.524 16.5754 6.16 17.0634 5.904C17.5594 5.648 18.1114 5.52 18.7194 5.52C19.1834 5.52 19.6034 5.596 19.9794 5.748C20.3634 5.9 20.6834 6.132 20.9394 6.444V5.592H22.3674ZM18.9474 10.44C19.5154 10.44 19.9794 10.272 20.3394 9.936C20.7074 9.592 20.8914 9.148 20.8914 8.604C20.8914 8.068 20.7074 7.632 20.3394 7.296C19.9794 6.96 19.5154 6.792 18.9474 6.792C18.3714 6.792 17.8994 6.96 17.5314 7.296C17.1714 7.632 16.9914 8.068 16.9914 8.604C16.9914 9.148 17.1714 9.592 17.5314 9.936C17.8994 10.272 18.3714 10.44 18.9474 10.44ZM26.7875 5.52C27.7315 5.52 28.4515 5.748 28.9475 6.204C29.4515 6.652 29.7035 7.332 29.7035 8.244V12H28.2875V11.22C28.1035 11.5 27.8395 11.716 27.4955 11.868C27.1595 12.012 26.7515 12.084 26.2715 12.084C25.7915 12.084 25.3715 12.004 25.0115 11.844C24.6515 11.676 24.3715 11.448 24.1715 11.16C23.9795 10.864 23.8835 10.532 23.8835 10.164C23.8835 9.588 24.0955 9.128 24.5195 8.784C24.9515 8.432 25.6275 8.256 26.5475 8.256H28.2035V8.16C28.2035 7.712 28.0675 7.368 27.7955 7.128C27.5315 6.888 27.1355 6.768 26.6075 6.768C26.2475 6.768 25.8915 6.824 25.5395 6.936C25.1955 7.048 24.9035 7.204 24.6635 7.404L24.0755 6.312C24.4115 6.056 24.8155 5.86 25.2875 5.724C25.7595 5.588 26.2595 5.52 26.7875 5.52ZM26.5835 10.992C26.9595 10.992 27.2915 10.908 27.5795 10.74C27.8755 10.564 28.0835 10.316 28.2035 9.996V9.252H26.6555C25.7915 9.252 25.3595 9.536 25.3595 10.104C25.3595 10.376 25.4675 10.592 25.6835 10.752C25.8995 10.912 26.1995 10.992 26.5835 10.992ZM35.2645 5.52C36.0725 5.52 36.7205 5.756 37.2085 6.228C37.6965 6.7 37.9405 7.4 37.9405 8.328V12H36.4405V8.52C36.4405 7.96 36.3085 7.54 36.0445 7.26C35.7805 6.972 35.4045 6.828 34.9165 6.828C34.3645 6.828 33.9285 6.996 33.6085 7.332C33.2885 7.66 33.1285 8.136 33.1285 8.76V12H31.6285V5.592H33.0565V6.42C33.3045 6.124 33.6165 5.9 33.9925 5.748C34.3685 5.596 34.7925 5.52 35.2645 5.52ZM39.8434 5.592H41.3434V12H39.8434V5.592ZM40.5994 4.536C40.3274 4.536 40.0994 4.452 39.9154 4.284C39.7314 4.108 39.6394 3.892 39.6394 3.636C39.6394 3.38 39.7314 3.168 39.9154 3C40.0994 2.824 40.3274 2.736 40.5994 2.736C40.8714 2.736 41.0994 2.82 41.2834 2.988C41.4674 3.148 41.5594 3.352 41.5594 3.6C41.5594 3.864 41.4674 4.088 41.2834 4.272C41.1074 4.448 40.8794 4.536 40.5994 4.536ZM48.3161 10.8V12H42.7841V11.052L46.3001 6.792H42.8561V5.592H48.2201V6.54L44.6921 10.8H48.3161ZM55.6291 8.832C55.6291 8.936 55.6211 9.084 55.6051 9.276H50.5771C50.6651 9.748 50.8931 10.124 51.2611 10.404C51.6371 10.676 52.1011 10.812 52.6531 10.812C53.3571 10.812 53.9371 10.58 54.3931 10.116L55.1971 11.04C54.9091 11.384 54.5451 11.644 54.1051 11.82C53.6651 11.996 53.1691 12.084 52.6171 12.084C51.9131 12.084 51.2931 11.944 50.7571 11.664C50.2211 11.384 49.8051 10.996 49.5091 10.5C49.2211 9.996 49.0771 9.428 49.0771 8.796C49.0771 8.172 49.2171 7.612 49.4971 7.116C49.7851 6.612 50.1811 6.22 50.6851 5.94C51.1891 5.66 51.7571 5.52 52.3891 5.52C53.0131 5.52 53.5691 5.66 54.0571 5.94C54.5531 6.212 54.9371 6.6 55.2091 7.104C55.4891 7.6 55.6291 8.176 55.6291 8.832ZM52.3891 6.72C51.9091 6.72 51.5011 6.864 51.1651 7.152C50.8371 7.432 50.6371 7.808 50.5651 8.28H54.2011C54.1371 7.816 53.9411 7.44 53.6131 7.152C53.2851 6.864 52.8771 6.72 52.3891 6.72ZM63.3459 3.096V12H61.9059V11.172C61.6579 11.476 61.3499 11.704 60.9819 11.856C60.6219 12.008 60.2219 12.084 59.7819 12.084C59.1659 12.084 58.6099 11.948 58.1139 11.676C57.6259 11.404 57.2419 11.02 56.9619 10.524C56.6819 10.02 56.5419 9.444 56.5419 8.796C56.5419 8.148 56.6819 7.576 56.9619 7.08C57.2419 6.584 57.6259 6.2 58.1139 5.928C58.6099 5.656 59.1659 5.52 59.7819 5.52C60.2059 5.52 60.5939 5.592 60.9459 5.736C61.2979 5.88 61.5979 6.096 61.8459 6.384V3.096H63.3459ZM59.9619 10.8C60.3219 10.8 60.6459 10.72 60.9339 10.56C61.2219 10.392 61.4499 10.156 61.6179 9.852C61.7859 9.548 61.8699 9.196 61.8699 8.796C61.8699 8.396 61.7859 8.044 61.6179 7.74C61.4499 7.436 61.2219 7.204 60.9339 7.044C60.6459 6.876 60.3219 6.792 59.9619 6.792C59.6019 6.792 59.2779 6.876 58.9899 7.044C58.7019 7.204 58.4739 7.436 58.3059 7.74C58.1379 8.044 58.0539 8.396 58.0539 8.796C58.0539 9.196 58.1379 9.548 58.3059 9.852C58.4739 10.156 58.7019 10.392 58.9899 10.56C59.2779 10.72 59.6019 10.8 59.9619 10.8ZM72.1766 5.52C72.8006 5.52 73.3566 5.656 73.8446 5.928C74.3406 6.2 74.7286 6.584 75.0086 7.08C75.2886 7.576 75.4286 8.148 75.4286 8.796C75.4286 9.444 75.2886 10.02 75.0086 10.524C74.7286 11.02 74.3406 11.404 73.8446 11.676C73.3566 11.948 72.8006 12.084 72.1766 12.084C71.7366 12.084 71.3326 12.008 70.9646 11.856C70.6046 11.704 70.3006 11.476 70.0526 11.172V12H68.6246V3.096H70.1246V6.372C70.3806 6.092 70.6806 5.88 71.0246 5.736C71.3766 5.592 71.7606 5.52 72.1766 5.52ZM72.0086 10.8C72.5606 10.8 73.0126 10.616 73.3646 10.248C73.7246 9.88 73.9046 9.396 73.9046 8.796C73.9046 8.196 73.7246 7.712 73.3646 7.344C73.0126 6.976 72.5606 6.792 72.0086 6.792C71.6486 6.792 71.3246 6.876 71.0366 7.044C70.7486 7.204 70.5206 7.436 70.3526 7.74C70.1846 8.044 70.1006 8.396 70.1006 8.796C70.1006 9.196 70.1846 9.548 70.3526 9.852C70.5206 10.156 70.7486 10.392 71.0366 10.56C71.3246 10.72 71.6486 10.8 72.0086 10.8ZM82.6754 5.592L79.6754 12.516C79.3954 13.212 79.0554 13.7 78.6554 13.98C78.2554 14.268 77.7714 14.412 77.2034 14.412C76.8834 14.412 76.5674 14.36 76.2554 14.256C75.9434 14.152 75.6874 14.008 75.4874 13.824L76.0874 12.72C76.2314 12.856 76.3994 12.964 76.5914 13.044C76.7914 13.124 76.9914 13.164 77.1914 13.164C77.4554 13.164 77.6714 13.096 77.8394 12.96C78.0154 12.824 78.1754 12.596 78.3194 12.276L78.4274 12.024L75.6314 5.592H77.1914L79.2074 10.332L81.2354 5.592H82.6754Z" fill="black"/>
<g clip-path="url(#clip0)">
<path d="M15.5887 48.286C14.0442 48.286 12.5629 47.6764 11.4707 46.5914C10.3785 45.5063 9.76497 44.0347 9.76497 42.5001C9.76497 40.9656 10.3785 39.494 11.4707 38.4089C12.5629 37.3238 14.0442 36.7142 15.5887 36.7142C18.4206 36.7142 20.5868 38.893 21.2119 40.991C21.2974 41.2781 21.356 41.5725 21.3867 41.8704H29.1616C29.059 39.6731 28.4172 37.534 27.292 35.6395C26.1669 33.745 24.5925 32.1526 22.7061 31.001V31.5712H21.412V30.2855C21.412 30.2855 21.2547 30.2194 21.0464 30.1336C20.838 30.0479 20.634 29.9594 20.424 29.8802C20.2998 29.8305 20.1898 29.7884 20.1162 29.7622C20.0282 29.7311 19.8924 29.6885 19.7429 29.6431C19.538 29.5783 19.3309 29.5179 19.1216 29.4618L18.9017 29.3995V29.4045C17.8177 29.1351 16.7045 28.9992 15.5871 28.9997C8.08211 28.9997 1.99829 35.044 1.99829 42.5001C1.99829 49.9563 8.08376 56 15.5887 56C22.8656 56 28.8065 50.3195 29.16 43.1741H21.3713C21.2052 44.5821 20.5246 45.8804 19.4586 46.8227C18.3927 47.7651 17.0156 48.2858 15.5887 48.286Z" fill="#F96209"/>
<path d="M22.7062 25.143H21.412V26.4288H22.7062V25.143Z" fill="#F96209"/>
<path d="M24.0003 20H22.7062V21.2858H24.0003V20Z" fill="#F96209"/>
<path d="M26.5887 21.2858H25.2946V22.5715H26.5887H27.8829V21.2858H26.5887Z" fill="#F96209"/>
<path d="M22.7062 22.5715H21.412V23.8573H22.7062H24.0003V22.5715H22.7062Z" fill="#F96209"/>
<path d="M29.1771 22.5715H27.8829V23.8573H29.1771V22.5715Z" fill="#F96209"/>
<path d="M27.8829 23.8573H26.5887V25.143H27.8829V23.8573Z" fill="#F96209"/>
<path d="M25.2945 25.143V23.8573H24.0004V25.143V26.4288V27.7145H25.2945V26.4288H26.5887V25.143H25.2945Z" fill="#F96209"/>
<path d="M27.8829 26.4288H26.5887V27.7145H27.8829V26.4288Z" fill="#F96209"/>
<path d="M24.0003 29.0003V27.7145H22.7062H21.412V29.0003V30.2855H22.7062V29.0003H24.0003Z" fill="#F96209"/>
<path d="M27.8829 30.2855H29.1771V29.0003V27.7145H27.8829V29.0003V30.2855Z" fill="#F96209"/>
<path d="M25.2945 30.2855H26.5887V29.0003H25.2945H24.0004V30.2855H25.2945Z" fill="#F96209"/>
<path d="M26.5887 31.5712V32.857H25.2945V31.5712H24.0003V30.2855H22.7062V31.5712H21.412V32.857V34.1427V35.4285V36.7142V38V39.2857V40.5715V41.8573H22.7062H24.0003H25.2945H26.5887H27.8829H29.177V40.5715V39.2857V38V36.7142V35.4285V34.1427V32.857V31.5712H27.8829V30.2855H26.5887V31.5712Z" fill="#F96209"/>
<path d="M21.4121 30.2855V41.8573L18.9089 29.4121C18.9089 29.4121 19.793 29.6492 20.1492 29.7639C20.4538 29.8616 21.4121 30.2855 21.4121 30.2855Z" fill="#F96209"/>
<path d="M30.485 27.7314H32.3839C32.7756 27.7236 33.1641 27.8031 33.5208 27.9641C33.8353 28.1071 34.101 28.3378 34.2856 28.6283C34.4643 28.938 34.5583 29.2887 34.5583 29.6456C34.5583 30.0025 34.4643 30.3532 34.2856 30.6629C34.1011 30.9535 33.8354 31.1843 33.5208 31.3271C33.1641 31.4881 32.7756 31.5676 32.3839 31.5598H30.485V27.7314ZM32.3289 30.5537C32.6079 30.5537 32.8307 30.4743 32.9975 30.3155C33.1642 30.1568 33.2478 29.9335 33.2482 29.6459C33.2482 29.3575 33.1646 29.1341 32.9975 28.9757C32.8303 28.8173 32.6075 28.7381 32.3289 28.7381H31.7841V30.5537H32.3289Z" fill="#F96209"/>
<path d="M35.0316 27.7315H36.3307V31.5598H35.0316V27.7315Z" fill="#F96209"/>
<path d="M39.5068 29.5426H40.6349V31.1616C40.3928 31.325 40.1248 31.447 39.8422 31.5226C39.5539 31.6045 39.2557 31.6468 38.9559 31.6482C38.5719 31.6545 38.1921 31.5673 37.8498 31.3943C37.5317 31.2333 37.2652 30.9874 37.0801 30.6842C36.8976 30.3684 36.8016 30.0106 36.8016 29.6464C36.8016 29.2823 36.8976 28.9245 37.0801 28.6086C37.2662 28.3039 37.5353 28.0577 37.8564 27.8986C38.2056 27.7249 38.5918 27.6375 38.9823 27.6441C39.3302 27.6383 39.6756 27.7026 39.9977 27.833C40.2881 27.9522 40.5443 28.141 40.7432 28.3825L39.9125 29.1095C39.6703 28.8288 39.3822 28.6884 39.0483 28.6884C38.762 28.6884 38.5344 28.7741 38.3655 28.9457C38.1965 29.1172 38.1122 29.3506 38.1126 29.6459C38.1126 29.9335 38.196 30.1649 38.3627 30.3401C38.5295 30.5152 38.7525 30.6028 39.0318 30.6028C39.1942 30.6032 39.3551 30.5717 39.5052 30.51L39.5068 29.5426Z" fill="#F96209"/>
<path d="M41.1913 27.7315H42.4898V31.5598H41.1913V27.7315Z" fill="#F96209"/>
<path d="M43.9546 28.7337H42.8242V27.7315H46.3802V28.7326H45.2515V31.5598H43.9529L43.9546 28.7337Z" fill="#F96209"/>
<path d="M49.1505 30.8934H47.6864L47.4275 31.5609H46.108L47.7909 27.7315H49.068L50.7525 31.5598H49.4094L49.1505 30.8934ZM48.7931 29.9649L48.4187 29.0025L48.0471 29.9638L48.7931 29.9649Z" fill="#F96209"/>
<path d="M50.9608 27.7315H52.2599V30.5591H53.9994V31.5598H50.9608V27.7315Z" fill="#F96209"/>
<path d="M31.5306 36.534C31.2124 36.3732 30.9459 36.1273 30.7609 35.8239C30.579 35.5084 30.4833 35.1511 30.4833 34.7875C30.4833 34.4239 30.579 34.0666 30.7609 33.7511C30.9458 33.4477 31.2124 33.2018 31.5306 33.0411C31.8707 32.8683 32.2482 32.7809 32.6302 32.7865C32.9744 32.7805 33.316 32.8477 33.6319 32.9837C33.918 33.1089 34.1676 33.304 34.3576 33.5507L33.5379 34.2782C33.2993 33.9789 33.0185 33.8294 32.6956 33.8298C32.424 33.8298 32.2056 33.9162 32.0403 34.0892C31.875 34.2622 31.7925 34.4947 31.7929 34.7867C31.7929 35.078 31.8753 35.3103 32.0403 35.4837C32.2052 35.657 32.4236 35.7436 32.6956 35.7436C33.0185 35.7436 33.2993 35.5942 33.5379 35.2952L34.3576 36.0228C34.1677 36.2701 33.9178 36.4657 33.6313 36.5914C33.3153 36.727 32.9738 36.794 32.6296 36.788C32.2479 36.7935 31.8707 36.7063 31.5306 36.534Z" fill="#F96209"/>
<path d="M35.5544 36.5313C35.2318 36.3663 34.9611 36.1163 34.7721 35.8085C34.5831 35.5008 34.4832 35.1472 34.4832 34.7867C34.4832 34.4262 34.5831 34.0727 34.7721 33.7649C34.9611 33.4572 35.2318 33.2071 35.5544 33.0422C35.9023 32.8729 36.2845 32.7849 36.6719 32.7849C37.0592 32.7849 37.4414 32.8729 37.7893 33.0422C38.1118 33.2072 38.3823 33.4573 38.5711 33.7651C38.76 34.0728 38.8599 34.4263 38.8599 34.7867C38.8599 35.1471 38.76 35.5006 38.5711 35.8083C38.3823 36.1161 38.1118 36.3662 37.7893 36.5313C37.4413 36.7002 37.0591 36.788 36.6719 36.788C36.2846 36.788 35.9024 36.7002 35.5544 36.5313ZM37.1092 35.6262C37.2418 35.5454 37.3494 35.43 37.4204 35.2925C37.4964 35.1346 37.5358 34.9618 37.5358 34.7867C37.5358 34.6117 37.4964 34.4389 37.4204 34.2809C37.3496 34.1433 37.2419 34.0278 37.1092 33.9472C36.9764 33.8703 36.8253 33.8298 36.6716 33.8298C36.5178 33.8298 36.3668 33.8703 36.234 33.9472C36.1014 34.0279 35.9939 34.1434 35.9233 34.2809C35.8473 34.4389 35.8079 34.6117 35.8079 34.7867C35.8079 34.9618 35.8473 35.1346 35.9233 35.2925C35.9941 35.4299 36.1016 35.5454 36.234 35.6262C36.3668 35.7031 36.5178 35.7437 36.6716 35.7437C36.8253 35.7437 36.9764 35.7031 37.1092 35.6262Z" fill="#F96209"/>
<path d="M40.2221 36.5313C39.8996 36.3662 39.6291 36.1161 39.4403 35.8083C39.2514 35.5006 39.1515 35.1471 39.1515 34.7867C39.1515 34.4263 39.2514 34.0728 39.4403 33.7651C39.6291 33.4573 39.8996 33.2072 40.2221 33.0422C40.57 32.8729 40.9522 32.7849 41.3395 32.7849C41.7269 32.7849 42.1091 32.8729 42.457 33.0422C42.7795 33.2072 43.05 33.4573 43.2388 33.7651C43.4277 34.0728 43.5276 34.4263 43.5276 34.7867C43.5276 35.1471 43.4277 35.5006 43.2388 35.8083C43.05 36.1161 42.7795 36.3662 42.457 36.5313C42.109 36.7002 41.7268 36.788 41.3395 36.788C40.9523 36.788 40.5701 36.7002 40.2221 36.5313ZM41.7796 35.6262C41.9122 35.5454 42.0199 35.43 42.0908 35.2925C42.1668 35.1346 42.2062 34.9618 42.2062 34.7867C42.2062 34.6117 42.1668 34.4389 42.0908 34.2809C42.02 34.1433 41.9123 34.0278 41.7796 33.9472C41.6468 33.8703 41.4958 33.8298 41.342 33.8298C41.1883 33.8298 41.0372 33.8703 40.9044 33.9472C40.7717 34.0278 40.664 34.1433 40.5932 34.2809C40.5172 34.4389 40.4778 34.6117 40.4778 34.7867C40.4778 34.9618 40.5172 35.1346 40.5932 35.2925C40.6642 35.43 40.7718 35.5454 40.9044 35.6262C41.0372 35.7031 41.1883 35.7437 41.342 35.7437C41.4958 35.7437 41.6468 35.7031 41.7796 35.6262Z" fill="#F96209"/>
<path d="M46.7726 33.0476C47.023 33.1536 47.2365 33.3304 47.3866 33.556C47.5367 33.7816 47.6167 34.046 47.6167 34.3164C47.6167 34.5868 47.5367 34.8513 47.3866 35.0769C47.2365 35.3025 47.023 35.4793 46.7726 35.5853C46.4782 35.7075 46.1613 35.767 45.8424 35.76H45.2865V36.7006H43.9874V32.8723H45.8424C46.1614 32.8652 46.4783 32.9249 46.7726 33.0476ZM46.1563 34.6469C46.241 34.5573 46.2882 34.4391 46.2882 34.3162C46.2882 34.1933 46.241 34.075 46.1563 33.9854C46.0678 33.9068 45.9364 33.868 45.7599 33.868H45.2865V34.7649H45.7599C45.9358 34.7649 46.068 34.7255 46.1563 34.6469Z" fill="#F96209"/>
<path d="M37.7416 38.0409L36.0699 41.7867H35.6762L34.0045 38.0409H34.4359L35.8811 41.2944L37.3371 38.0409H37.7416Z" fill="#F96209"/>
<path d="M31.8578 38.3692H30.5037V38.0191H33.6192V38.3692H32.2651V41.8474H31.8578V38.3692Z" fill="#F96209"/>
</g>
<path d="M117.128 3.6H120.8C121.696 3.6 122.492 3.776 123.188 4.128C123.884 4.472 124.424 4.964 124.808 5.604C125.192 6.236 125.384 6.968 125.384 7.8C125.384 8.632 125.192 9.368 124.808 10.008C124.424 10.64 123.884 11.132 123.188 11.484C122.492 11.828 121.696 12 120.8 12H117.128V3.6ZM120.728 10.68C121.344 10.68 121.884 10.564 122.348 10.332C122.82 10.092 123.18 9.756 123.428 9.324C123.684 8.884 123.812 8.376 123.812 7.8C123.812 7.224 123.684 6.72 123.428 6.288C123.18 5.848 122.82 5.512 122.348 5.28C121.884 5.04 121.344 4.92 120.728 4.92H118.688V10.68H120.728ZM129.346 5.52C130.29 5.52 131.01 5.748 131.506 6.204C132.01 6.652 132.262 7.332 132.262 8.244V12H130.846V11.22C130.662 11.5 130.398 11.716 130.054 11.868C129.718 12.012 129.31 12.084 128.83 12.084C128.35 12.084 127.93 12.004 127.57 11.844C127.21 11.676 126.93 11.448 126.73 11.16C126.538 10.864 126.442 10.532 126.442 10.164C126.442 9.588 126.654 9.128 127.078 8.784C127.51 8.432 128.186 8.256 129.106 8.256H130.762V8.16C130.762 7.712 130.626 7.368 130.354 7.128C130.09 6.888 129.694 6.768 129.166 6.768C128.806 6.768 128.45 6.824 128.098 6.936C127.754 7.048 127.462 7.204 127.222 7.404L126.634 6.312C126.97 6.056 127.374 5.86 127.846 5.724C128.318 5.588 128.818 5.52 129.346 5.52ZM129.142 10.992C129.518 10.992 129.85 10.908 130.138 10.74C130.434 10.564 130.642 10.316 130.762 9.996V9.252H129.214C128.35 9.252 127.918 9.536 127.918 10.104C127.918 10.376 128.026 10.592 128.242 10.752C128.458 10.912 128.758 10.992 129.142 10.992ZM138.039 11.652C137.863 11.796 137.647 11.904 137.391 11.976C137.143 12.048 136.879 12.084 136.599 12.084C135.895 12.084 135.351 11.9 134.967 11.532C134.583 11.164 134.391 10.628 134.391 9.924V6.84H133.335V5.64H134.391V4.176H135.891V5.64H137.607V6.84H135.891V9.888C135.891 10.2 135.967 10.44 136.119 10.608C136.271 10.768 136.491 10.848 136.779 10.848C137.115 10.848 137.395 10.76 137.619 10.584L138.039 11.652ZM145.086 8.832C145.086 8.936 145.078 9.084 145.062 9.276H140.034C140.122 9.748 140.35 10.124 140.718 10.404C141.094 10.676 141.558 10.812 142.11 10.812C142.814 10.812 143.394 10.58 143.85 10.116L144.654 11.04C144.366 11.384 144.002 11.644 143.562 11.82C143.122 11.996 142.626 12.084 142.074 12.084C141.37 12.084 140.75 11.944 140.214 11.664C139.678 11.384 139.262 10.996 138.966 10.5C138.678 9.996 138.534 9.428 138.534 8.796C138.534 8.172 138.674 7.612 138.954 7.116C139.242 6.612 139.638 6.22 140.142 5.94C140.646 5.66 141.214 5.52 141.846 5.52C142.47 5.52 143.026 5.66 143.514 5.94C144.01 6.212 144.394 6.6 144.666 7.104C144.946 7.6 145.086 8.176 145.086 8.832ZM141.846 6.72C141.366 6.72 140.958 6.864 140.622 7.152C140.294 7.432 140.094 7.808 140.022 8.28H143.658C143.594 7.816 143.398 7.44 143.07 7.152C142.742 6.864 142.334 6.72 141.846 6.72ZM156.287 12.132L155.231 11.112C154.447 11.784 153.507 12.12 152.411 12.12C151.827 12.12 151.303 12.024 150.839 11.832C150.375 11.64 150.011 11.376 149.747 11.04C149.483 10.696 149.351 10.308 149.351 9.876C149.351 9.356 149.503 8.9 149.807 8.508C150.111 8.108 150.607 7.716 151.295 7.332C150.959 6.996 150.719 6.684 150.575 6.396C150.431 6.1 150.359 5.796 150.359 5.484C150.359 4.892 150.579 4.416 151.019 4.056C151.467 3.688 152.059 3.504 152.795 3.504C153.475 3.504 154.019 3.672 154.427 4.008C154.835 4.336 155.039 4.784 155.039 5.352C155.039 5.784 154.903 6.168 154.631 6.504C154.367 6.84 153.931 7.18 153.323 7.524L155.135 9.252C155.335 8.86 155.491 8.388 155.603 7.836L156.815 8.232C156.655 8.976 156.403 9.616 156.059 10.152L157.115 11.16L156.287 12.132ZM152.795 4.572C152.467 4.572 152.207 4.656 152.015 4.824C151.823 4.984 151.727 5.196 151.727 5.46C151.727 5.652 151.779 5.836 151.883 6.012C151.987 6.18 152.187 6.412 152.483 6.708C152.963 6.444 153.295 6.216 153.479 6.024C153.671 5.824 153.767 5.608 153.767 5.376C153.767 5.128 153.679 4.932 153.503 4.788C153.335 4.644 153.099 4.572 152.795 4.572ZM152.519 10.896C153.215 10.896 153.823 10.684 154.343 10.26L152.123 8.136C151.643 8.4 151.303 8.656 151.103 8.904C150.911 9.144 150.815 9.416 150.815 9.72C150.815 10.072 150.971 10.356 151.283 10.572C151.595 10.788 152.007 10.896 152.519 10.896ZM163.48 4.92H160.696V3.6H167.824V4.92H165.04V12H163.48V4.92ZM168.699 5.592H170.199V12H168.699V5.592ZM169.455 4.536C169.183 4.536 168.955 4.452 168.771 4.284C168.587 4.108 168.495 3.892 168.495 3.636C168.495 3.38 168.587 3.168 168.771 3C168.955 2.824 169.183 2.736 169.455 2.736C169.727 2.736 169.955 2.82 170.139 2.988C170.323 3.148 170.415 3.352 170.415 3.6C170.415 3.864 170.323 4.088 170.139 4.272C169.963 4.448 169.735 4.536 169.455 4.536ZM180.256 5.52C181.064 5.52 181.704 5.756 182.176 6.228C182.648 6.692 182.884 7.392 182.884 8.328V12H181.384V8.52C181.384 7.96 181.26 7.54 181.012 7.26C180.764 6.972 180.408 6.828 179.944 6.828C179.44 6.828 179.036 6.996 178.732 7.332C178.428 7.66 178.276 8.132 178.276 8.748V12H176.776V8.52C176.776 7.96 176.652 7.54 176.404 7.26C176.156 6.972 175.8 6.828 175.336 6.828C174.824 6.828 174.416 6.992 174.112 7.32C173.816 7.648 173.668 8.124 173.668 8.748V12H172.168V5.592H173.596V6.408C173.836 6.12 174.136 5.9 174.496 5.748C174.856 5.596 175.256 5.52 175.696 5.52C176.176 5.52 176.6 5.612 176.968 5.796C177.344 5.972 177.64 6.236 177.856 6.588C178.12 6.252 178.46 5.992 178.876 5.808C179.292 5.616 179.752 5.52 180.256 5.52ZM190.883 8.832C190.883 8.936 190.875 9.084 190.859 9.276H185.831C185.919 9.748 186.147 10.124 186.515 10.404C186.891 10.676 187.355 10.812 187.907 10.812C188.611 10.812 189.191 10.58 189.647 10.116L190.451 11.04C190.163 11.384 189.799 11.644 189.359 11.82C188.919 11.996 188.423 12.084 187.871 12.084C187.167 12.084 186.547 11.944 186.011 11.664C185.475 11.384 185.059 10.996 184.763 10.5C184.475 9.996 184.331 9.428 184.331 8.796C184.331 8.172 184.471 7.612 184.751 7.116C185.039 6.612 185.435 6.22 185.939 5.94C186.443 5.66 187.011 5.52 187.643 5.52C188.267 5.52 188.823 5.66 189.311 5.94C189.807 6.212 190.191 6.6 190.463 7.104C190.743 7.6 190.883 8.176 190.883 8.832ZM187.643 6.72C187.163 6.72 186.755 6.864 186.419 7.152C186.091 7.432 185.891 7.808 185.819 8.28H189.455C189.391 7.816 189.195 7.44 188.867 7.152C188.539 6.864 188.131 6.72 187.643 6.72Z" fill="black"/>
<path d="M125.5 24H118.5C117.948 24 117.5 24.4477 117.5 25V32C117.5 32.5523 117.948 33 118.5 33H125.5C126.052 33 126.5 32.5523 126.5 32V25C126.5 24.4477 126.052 24 125.5 24Z" stroke="#8D8D8D" stroke-linecap="round" stroke-linejoin="round"/>
<path d="M124 23V25" stroke="#8D8D8D" stroke-linecap="round" stroke-linejoin="round"/>
<path d="M120 23V25" stroke="#8D8D8D" stroke-linecap="round" stroke-linejoin="round"/>
<path d="M117.5 27H126.5" stroke="#8D8D8D" stroke-linecap="round" stroke-linejoin="round"/>
<path d="M139.07 25V32H138.25L134.05 26.78V32H133.05V25H133.87L138.07 30.22V25H139.07ZM143.295 32.06C142.769 32.06 142.295 31.9433 141.875 31.71C141.455 31.4767 141.125 31.1567 140.885 30.75C140.652 30.3367 140.535 29.87 140.535 29.35C140.535 28.83 140.652 28.3667 140.885 27.96C141.125 27.5467 141.455 27.2267 141.875 27C142.295 26.7667 142.769 26.65 143.295 26.65C143.822 26.65 144.292 26.7667 144.705 27C145.125 27.2267 145.452 27.5467 145.685 27.96C145.925 28.3667 146.045 28.83 146.045 29.35C146.045 29.87 145.925 30.3367 145.685 30.75C145.452 31.1567 145.125 31.4767 144.705 31.71C144.292 31.9433 143.822 32.06 143.295 32.06ZM143.295 31.22C143.635 31.22 143.939 31.1433 144.205 30.99C144.479 30.83 144.692 30.61 144.845 30.33C144.999 30.0433 145.075 29.7167 145.075 29.35C145.075 28.9833 144.999 28.66 144.845 28.38C144.692 28.0933 144.479 27.8733 144.205 27.72C143.939 27.5667 143.635 27.49 143.295 27.49C142.955 27.49 142.649 27.5667 142.375 27.72C142.109 27.8733 141.895 28.0933 141.735 28.38C141.582 28.66 141.505 28.9833 141.505 29.35C141.505 29.7167 141.582 30.0433 141.735 30.33C141.895 30.61 142.109 30.83 142.375 30.99C142.649 31.1433 142.955 31.22 143.295 31.22ZM151.916 26.7L149.596 32H148.616L146.296 26.7H147.296L149.116 30.95L150.976 26.7H151.916ZM157.456 29.38C157.456 29.4533 157.449 29.55 157.436 29.67H153.136C153.196 30.1367 153.399 30.5133 153.746 30.8C154.099 31.08 154.536 31.22 155.056 31.22C155.689 31.22 156.199 31.0067 156.586 30.58L157.116 31.2C156.876 31.48 156.576 31.6933 156.216 31.84C155.863 31.9867 155.466 32.06 155.026 32.06C154.466 32.06 153.969 31.9467 153.536 31.72C153.103 31.4867 152.766 31.1633 152.526 30.75C152.293 30.3367 152.176 29.87 152.176 29.35C152.176 28.8367 152.289 28.3733 152.516 27.96C152.749 27.5467 153.066 27.2267 153.466 27C153.873 26.7667 154.329 26.65 154.836 26.65C155.343 26.65 155.793 26.7667 156.186 27C156.586 27.2267 156.896 27.5467 157.116 27.96C157.343 28.3733 157.456 28.8467 157.456 29.38ZM154.836 27.46C154.376 27.46 153.989 27.6 153.676 27.88C153.369 28.16 153.189 28.5267 153.136 28.98H156.536C156.483 28.5333 156.299 28.17 155.986 27.89C155.679 27.6033 155.296 27.46 154.836 27.46ZM165.419 26.65C166.086 26.65 166.612 26.8433 166.999 27.23C167.392 27.6167 167.589 28.19 167.589 28.95V32H166.629V29.06C166.629 28.5467 166.509 28.16 166.269 27.9C166.036 27.64 165.699 27.51 165.259 27.51C164.772 27.51 164.386 27.6633 164.099 27.97C163.812 28.27 163.669 28.7033 163.669 29.27V32H162.709V29.06C162.709 28.5467 162.589 28.16 162.349 27.9C162.116 27.64 161.779 27.51 161.339 27.51C160.852 27.51 160.466 27.6633 160.179 27.97C159.892 28.27 159.749 28.7033 159.749 29.27V32H158.789V26.7H159.709V27.49C159.902 27.2167 160.156 27.01 160.469 26.87C160.782 26.7233 161.139 26.65 161.539 26.65C161.952 26.65 162.319 26.7333 162.639 26.9C162.959 27.0667 163.206 27.31 163.379 27.63C163.579 27.3233 163.856 27.0833 164.209 26.91C164.569 26.7367 164.972 26.65 165.419 26.65ZM172.165 26.65C172.679 26.65 173.139 26.7633 173.545 26.99C173.952 27.2167 174.269 27.5333 174.495 27.94C174.729 28.3467 174.845 28.8167 174.845 29.35C174.845 29.8833 174.729 30.3567 174.495 30.77C174.269 31.1767 173.952 31.4933 173.545 31.72C173.139 31.9467 172.679 32.06 172.165 32.06C171.772 32.06 171.412 31.9833 171.085 31.83C170.759 31.6767 170.489 31.4533 170.275 31.16V32H169.355V24.58H170.315V27.5C170.529 27.22 170.795 27.01 171.115 26.87C171.435 26.7233 171.785 26.65 172.165 26.65ZM172.085 31.22C172.425 31.22 172.729 31.1433 172.995 30.99C173.269 30.83 173.482 30.61 173.635 30.33C173.795 30.0433 173.875 29.7167 173.875 29.35C173.875 28.9833 173.795 28.66 173.635 28.38C173.482 28.0933 173.269 27.8733 172.995 27.72C172.729 27.5667 172.425 27.49 172.085 27.49C171.752 27.49 171.449 27.5667 171.175 27.72C170.902 27.8733 170.689 28.0933 170.535 28.38C170.382 28.66 170.305 28.9833 170.305 29.35C170.305 29.7167 170.382 30.0433 170.535 30.33C170.689 30.61 170.902 30.83 171.175 30.99C171.449 31.1433 171.752 31.22 172.085 31.22ZM180.962 29.38C180.962 29.4533 180.955 29.55 180.942 29.67H176.642C176.702 30.1367 176.905 30.5133 177.252 30.8C177.605 31.08 178.042 31.22 178.562 31.22C179.195 31.22 179.705 31.0067 180.092 30.58L180.622 31.2C180.382 31.48 180.082 31.6933 179.722 31.84C179.368 31.9867 178.972 32.06 178.532 32.06C177.972 32.06 177.475 31.9467 177.042 31.72C176.608 31.4867 176.272 31.1633 176.032 30.75C175.798 30.3367 175.682 29.87 175.682 29.35C175.682 28.8367 175.795 28.3733 176.022 27.96C176.255 27.5467 176.572 27.2267 176.972 27C177.378 26.7667 177.835 26.65 178.342 26.65C178.848 26.65 179.298 26.7667 179.692 27C180.092 27.2267 180.402 27.5467 180.622 27.96C180.848 28.3733 180.962 28.8467 180.962 29.38ZM178.342 27.46C177.882 27.46 177.495 27.6 177.182 27.88C176.875 28.16 176.695 28.5267 176.642 28.98H180.042C179.988 28.5333 179.805 28.17 179.492 27.89C179.185 27.6033 178.802 27.46 178.342 27.46ZM183.215 27.59C183.381 27.2833 183.628 27.05 183.955 26.89C184.281 26.73 184.678 26.65 185.145 26.65V27.58C185.091 27.5733 185.018 27.57 184.925 27.57C184.405 27.57 183.995 27.7267 183.695 28.04C183.401 28.3467 183.255 28.7867 183.255 29.36V32H182.295V26.7H183.215V27.59ZM193.572 31.13V32H188.542V31.32L191.392 28.57C191.739 28.2367 191.972 27.95 192.092 27.71C192.212 27.4633 192.272 27.2167 192.272 26.97C192.272 26.6033 192.142 26.32 191.882 26.12C191.629 25.9133 191.262 25.81 190.782 25.81C190.009 25.81 189.412 26.0633 188.992 26.57L188.312 25.98C188.585 25.6467 188.942 25.3867 189.382 25.2C189.829 25.0133 190.325 24.92 190.872 24.92C191.605 24.92 192.189 25.0967 192.622 25.45C193.055 25.7967 193.272 26.27 193.272 26.87C193.272 27.2433 193.192 27.5967 193.032 27.93C192.872 28.2633 192.569 28.6433 192.122 29.07L189.982 31.13H193.572ZM197.225 32.08C196.671 32.08 196.178 31.94 195.745 31.66C195.318 31.3733 194.981 30.96 194.735 30.42C194.488 29.88 194.365 29.24 194.365 28.5C194.365 27.76 194.488 27.12 194.735 26.58C194.981 26.04 195.318 25.63 195.745 25.35C196.178 25.0633 196.671 24.92 197.225 24.92C197.771 24.92 198.258 25.0633 198.685 25.35C199.118 25.63 199.458 26.04 199.705 26.58C199.951 27.12 200.075 27.76 200.075 28.5C200.075 29.24 199.951 29.88 199.705 30.42C199.458 30.96 199.118 31.3733 198.685 31.66C198.258 31.94 197.771 32.08 197.225 32.08ZM197.225 31.19C197.785 31.19 198.231 30.96 198.565 30.5C198.905 30.04 199.075 29.3733 199.075 28.5C199.075 27.6267 198.905 26.96 198.565 26.5C198.231 26.04 197.785 25.81 197.225 25.81C196.658 25.81 196.205 26.04 195.865 26.5C195.531 26.96 195.365 27.6267 195.365 28.5C195.365 29.3733 195.531 30.04 195.865 30.5C196.205 30.96 196.658 31.19 197.225 31.19ZM205.925 31.13V32H200.895V31.32L203.745 28.57C204.092 28.2367 204.325 27.95 204.445 27.71C204.565 27.4633 204.625 27.2167 204.625 26.97C204.625 26.6033 204.495 26.32 204.235 26.12C203.982 25.9133 203.615 25.81 203.135 25.81C202.362 25.81 201.765 26.0633 201.345 26.57L200.665 25.98C200.939 25.6467 201.295 25.3867 201.735 25.2C202.182 25.0133 202.679 24.92 203.225 24.92C203.959 24.92 204.542 25.0967 204.975 25.45C205.409 25.7967 205.625 26.27 205.625 26.87C205.625 27.2433 205.545 27.5967 205.385 27.93C205.225 28.2633 204.922 28.6433 204.475 29.07L202.335 31.13H205.925ZM208.918 25V32H207.928V25.87H206.348V25H208.918Z" fill="#8D8D8D"/>
<path d="M122 46.5C123.933 46.5 125.5 44.933 125.5 43C125.5 41.067 123.933 39.5 122 39.5C120.067 39.5 118.5 41.067 118.5 43C118.5 44.933 120.067 46.5 122 46.5Z" stroke="#8D8D8D" stroke-linecap="round" stroke-linejoin="round"/>
<path d="M122 41.5V43L122.75 43.75" stroke="#8D8D8D" stroke-linecap="round" stroke-linejoin="round"/>
<path d="M124.255 45.675L124.08 47.59C124.058 47.8393 123.942 48.0711 123.757 48.2396C123.572 48.4081 123.33 48.501 123.08 48.5H120.915C120.665 48.501 120.423 48.4081 120.238 48.2396C120.053 48.0711 119.938 47.8393 119.915 47.59L119.74 45.675M119.745 40.325L119.92 38.41C119.943 38.1615 120.057 37.9305 120.241 37.7621C120.425 37.5937 120.666 37.5002 120.915 37.5H123.09C123.34 37.499 123.582 37.5919 123.767 37.7604C123.952 37.9289 124.068 38.1607 124.09 38.41L124.265 40.325" stroke="#8D8D8D" stroke-linecap="round" stroke-linejoin="round"/>
<path d="M135.34 47.08C134.787 47.08 134.293 46.94 133.86 46.66C133.433 46.3733 133.097 45.96 132.85 45.42C132.603 44.88 132.48 44.24 132.48 43.5C132.48 42.76 132.603 42.12 132.85 41.58C133.097 41.04 133.433 40.63 133.86 40.35C134.293 40.0633 134.787 39.92 135.34 39.92C135.887 39.92 136.373 40.0633 136.8 40.35C137.233 40.63 137.573 41.04 137.82 41.58C138.067 42.12 138.19 42.76 138.19 43.5C138.19 44.24 138.067 44.88 137.82 45.42C137.573 45.96 137.233 46.3733 136.8 46.66C136.373 46.94 135.887 47.08 135.34 47.08ZM135.34 46.19C135.9 46.19 136.347 45.96 136.68 45.5C137.02 45.04 137.19 44.3733 137.19 43.5C137.19 42.6267 137.02 41.96 136.68 41.5C136.347 41.04 135.9 40.81 135.34 40.81C134.773 40.81 134.32 41.04 133.98 41.5C133.647 41.96 133.48 42.6267 133.48 43.5C133.48 44.3733 133.647 45.04 133.98 45.5C134.32 45.96 134.773 46.19 135.34 46.19ZM144.182 40V40.68L141.352 47H140.292L143.062 40.87H139.862V42.12H138.902V40H144.182ZM145.523 43.02C145.336 43.02 145.176 42.9567 145.043 42.83C144.909 42.6967 144.843 42.53 144.843 42.33C144.843 42.1367 144.909 41.9767 145.043 41.85C145.176 41.7167 145.336 41.65 145.523 41.65C145.709 41.65 145.866 41.7133 145.993 41.84C146.119 41.9667 146.183 42.13 146.183 42.33C146.183 42.53 146.116 42.6967 145.983 42.83C145.856 42.9567 145.703 43.02 145.523 43.02ZM145.523 47.06C145.336 47.06 145.176 46.9967 145.043 46.87C144.909 46.7367 144.843 46.57 144.843 46.37C144.843 46.1767 144.909 46.0167 145.043 45.89C145.176 45.7567 145.336 45.69 145.523 45.69C145.709 45.69 145.866 45.7533 145.993 45.88C146.119 46.0067 146.183 46.17 146.183 46.37C146.183 46.57 146.116 46.7367 145.983 46.87C145.856 46.9967 145.703 47.06 145.523 47.06ZM149.988 47.08C149.435 47.08 148.942 46.94 148.508 46.66C148.082 46.3733 147.745 45.96 147.498 45.42C147.252 44.88 147.128 44.24 147.128 43.5C147.128 42.76 147.252 42.12 147.498 41.58C147.745 41.04 148.082 40.63 148.508 40.35C148.942 40.0633 149.435 39.92 149.988 39.92C150.535 39.92 151.022 40.0633 151.448 40.35C151.882 40.63 152.222 41.04 152.468 41.58C152.715 42.12 152.838 42.76 152.838 43.5C152.838 44.24 152.715 44.88 152.468 45.42C152.222 45.96 151.882 46.3733 151.448 46.66C151.022 46.94 150.535 47.08 149.988 47.08ZM149.988 46.19C150.548 46.19 150.995 45.96 151.328 45.5C151.668 45.04 151.838 44.3733 151.838 43.5C151.838 42.6267 151.668 41.96 151.328 41.5C150.995 41.04 150.548 40.81 149.988 40.81C149.422 40.81 148.968 41.04 148.628 41.5C148.295 41.96 148.128 42.6267 148.128 43.5C148.128 44.3733 148.295 45.04 148.628 45.5C148.968 45.96 149.422 46.19 149.988 46.19ZM156.658 47.08C156.105 47.08 155.612 46.94 155.178 46.66C154.752 46.3733 154.415 45.96 154.168 45.42C153.922 44.88 153.798 44.24 153.798 43.5C153.798 42.76 153.922 42.12 154.168 41.58C154.415 41.04 154.752 40.63 155.178 40.35C155.612 40.0633 156.105 39.92 156.658 39.92C157.205 39.92 157.692 40.0633 158.118 40.35C158.552 40.63 158.892 41.04 159.138 41.58C159.385 42.12 159.508 42.76 159.508 43.5C159.508 44.24 159.385 44.88 159.138 45.42C158.892 45.96 158.552 46.3733 158.118 46.66C157.692 46.94 157.205 47.08 156.658 47.08ZM156.658 46.19C157.218 46.19 157.665 45.96 157.998 45.5C158.338 45.04 158.508 44.3733 158.508 43.5C158.508 42.6267 158.338 41.96 157.998 41.5C157.665 41.04 157.218 40.81 156.658 40.81C156.092 40.81 155.638 41.04 155.298 41.5C154.965 41.96 154.798 42.6267 154.798 43.5C154.798 44.3733 154.965 45.04 155.298 45.5C155.638 45.96 156.092 46.19 156.658 46.19ZM163.244 43.84H165.934V44.67H163.244V43.84ZM171.838 40V47H170.848V40.87H169.268V40H171.838ZM176.229 47.08C175.675 47.08 175.182 46.94 174.749 46.66C174.322 46.3733 173.985 45.96 173.739 45.42C173.492 44.88 173.369 44.24 173.369 43.5C173.369 42.76 173.492 42.12 173.739 41.58C173.985 41.04 174.322 40.63 174.749 40.35C175.182 40.0633 175.675 39.92 176.229 39.92C176.775 39.92 177.262 40.0633 177.689 40.35C178.122 40.63 178.462 41.04 178.709 41.58C178.955 42.12 179.079 42.76 179.079 43.5C179.079 44.24 178.955 44.88 178.709 45.42C178.462 45.96 178.122 46.3733 177.689 46.66C177.262 46.94 176.775 47.08 176.229 47.08ZM176.229 46.19C176.789 46.19 177.235 45.96 177.569 45.5C177.909 45.04 178.079 44.3733 178.079 43.5C178.079 42.6267 177.909 41.96 177.569 41.5C177.235 41.04 176.789 40.81 176.229 40.81C175.662 40.81 175.209 41.04 174.869 41.5C174.535 41.96 174.369 42.6267 174.369 43.5C174.369 44.3733 174.535 45.04 174.869 45.5C175.209 45.96 175.662 46.19 176.229 46.19ZM180.699 43.02C180.512 43.02 180.352 42.9567 180.219 42.83C180.085 42.6967 180.019 42.53 180.019 42.33C180.019 42.1367 180.085 41.9767 180.219 41.85C180.352 41.7167 180.512 41.65 180.699 41.65C180.885 41.65 181.042 41.7133 181.169 41.84C181.295 41.9667 181.359 42.13 181.359 42.33C181.359 42.53 181.292 42.6967 181.159 42.83C181.032 42.9567 180.879 43.02 180.699 43.02ZM180.699 47.06C180.512 47.06 180.352 46.9967 180.219 46.87C180.085 46.7367 180.019 46.57 180.019 46.37C180.019 46.1767 180.085 46.0167 180.219 45.89C180.352 45.7567 180.512 45.69 180.699 45.69C180.885 45.69 181.042 45.7533 181.169 45.88C181.295 46.0067 181.359 46.17 181.359 46.37C181.359 46.57 181.292 46.7367 181.159 46.87C181.032 46.9967 180.879 47.06 180.699 47.06ZM185.164 47.08C184.611 47.08 184.118 46.94 183.684 46.66C183.258 46.3733 182.921 45.96 182.674 45.42C182.428 44.88 182.304 44.24 182.304 43.5C182.304 42.76 182.428 42.12 182.674 41.58C182.921 41.04 183.258 40.63 183.684 40.35C184.118 40.0633 184.611 39.92 185.164 39.92C185.711 39.92 186.198 40.0633 186.624 40.35C187.058 40.63 187.398 41.04 187.644 41.58C187.891 42.12 188.014 42.76 188.014 43.5C188.014 44.24 187.891 44.88 187.644 45.42C187.398 45.96 187.058 46.3733 186.624 46.66C186.198 46.94 185.711 47.08 185.164 47.08ZM185.164 46.19C185.724 46.19 186.171 45.96 186.504 45.5C186.844 45.04 187.014 44.3733 187.014 43.5C187.014 42.6267 186.844 41.96 186.504 41.5C186.171 41.04 185.724 40.81 185.164 40.81C184.598 40.81 184.144 41.04 183.804 41.5C183.471 41.96 183.304 42.6267 183.304 43.5C183.304 44.3733 183.471 45.04 183.804 45.5C184.144 45.96 184.598 46.19 185.164 46.19ZM191.834 47.08C191.281 47.08 190.787 46.94 190.354 46.66C189.927 46.3733 189.591 45.96 189.344 45.42C189.097 44.88 188.974 44.24 188.974 43.5C188.974 42.76 189.097 42.12 189.344 41.58C189.591 41.04 189.927 40.63 190.354 40.35C190.787 40.0633 191.281 39.92 191.834 39.92C192.381 39.92 192.867 40.0633 193.294 40.35C193.727 40.63 194.067 41.04 194.314 41.58C194.561 42.12 194.684 42.76 194.684 43.5C194.684 44.24 194.561 44.88 194.314 45.42C194.067 45.96 193.727 46.3733 193.294 46.66C192.867 46.94 192.381 47.08 191.834 47.08ZM191.834 46.19C192.394 46.19 192.841 45.96 193.174 45.5C193.514 45.04 193.684 44.3733 193.684 43.5C193.684 42.6267 193.514 41.96 193.174 41.5C192.841 41.04 192.394 40.81 191.834 40.81C191.267 40.81 190.814 41.04 190.474 41.5C190.141 41.96 189.974 42.6267 189.974 43.5C189.974 44.3733 190.141 45.04 190.474 45.5C190.814 45.96 191.267 46.19 191.834 46.19ZM208.79 40L206.45 47H205.4L203.49 41.41L201.58 47H200.51L198.17 40H199.2L201.09 45.69L203.06 40H203.98L205.91 45.72L207.84 40H208.79ZM210.013 40H211.013V47H210.013V40ZM217.819 43.37C218.225 43.4833 218.545 43.69 218.779 43.99C219.012 44.2833 219.129 44.6567 219.129 45.11C219.129 45.7167 218.899 46.1833 218.439 46.51C217.985 46.8367 217.322 47 216.449 47H213.109V40H216.249C217.049 40 217.665 40.16 218.099 40.48C218.539 40.8 218.759 41.2433 218.759 41.81C218.759 42.1767 218.672 42.4933 218.499 42.76C218.332 43.0267 218.105 43.23 217.819 43.37ZM214.109 40.81V43.05H216.159C216.672 43.05 217.065 42.9567 217.339 42.77C217.619 42.5767 217.759 42.2967 217.759 41.93C217.759 41.5633 217.619 41.2867 217.339 41.1C217.065 40.9067 216.672 40.81 216.159 40.81H214.109ZM216.409 46.19C216.975 46.19 217.402 46.0967 217.689 45.91C217.975 45.7233 218.119 45.43 218.119 45.03C218.119 44.25 217.549 43.86 216.409 43.86H214.109V46.19H216.409Z" fill="#8D8D8D"/>
<path d="M253.128 3.6H254.688V10.68H259.08V12H253.128V3.6ZM262.989 12.084C262.341 12.084 261.757 11.944 261.237 11.664C260.717 11.384 260.309 10.996 260.013 10.5C259.725 9.996 259.581 9.428 259.581 8.796C259.581 8.164 259.725 7.6 260.013 7.104C260.309 6.608 260.717 6.22 261.237 5.94C261.757 5.66 262.341 5.52 262.989 5.52C263.645 5.52 264.233 5.66 264.753 5.94C265.273 6.22 265.677 6.608 265.965 7.104C266.261 7.6 266.409 8.164 266.409 8.796C266.409 9.428 266.261 9.996 265.965 10.5C265.677 10.996 265.273 11.384 264.753 11.664C264.233 11.944 263.645 12.084 262.989 12.084ZM262.989 10.8C263.541 10.8 263.997 10.616 264.357 10.248C264.717 9.88 264.897 9.396 264.897 8.796C264.897 8.196 264.717 7.712 264.357 7.344C263.997 6.976 263.541 6.792 262.989 6.792C262.437 6.792 261.981 6.976 261.621 7.344C261.269 7.712 261.093 8.196 261.093 8.796C261.093 9.396 261.269 9.88 261.621 10.248C261.981 10.616 262.437 10.8 262.989 10.8ZM270.783 12.084C270.119 12.084 269.523 11.944 268.995 11.664C268.467 11.384 268.055 10.996 267.759 10.5C267.463 9.996 267.315 9.428 267.315 8.796C267.315 8.164 267.463 7.6 267.759 7.104C268.055 6.608 268.463 6.22 268.983 5.94C269.511 5.66 270.111 5.52 270.783 5.52C271.415 5.52 271.967 5.648 272.439 5.904C272.919 6.16 273.279 6.528 273.519 7.008L272.367 7.68C272.183 7.384 271.951 7.164 271.671 7.02C271.399 6.868 271.099 6.792 270.771 6.792C270.211 6.792 269.747 6.976 269.379 7.344C269.011 7.704 268.827 8.188 268.827 8.796C268.827 9.404 269.007 9.892 269.367 10.26C269.735 10.62 270.203 10.8 270.771 10.8C271.099 10.8 271.399 10.728 271.671 10.584C271.951 10.432 272.183 10.208 272.367 9.912L273.519 10.584C273.271 11.064 272.907 11.436 272.427 11.7C271.955 11.956 271.407 12.084 270.783 12.084ZM277.264 5.52C278.208 5.52 278.928 5.748 279.424 6.204C279.928 6.652 280.18 7.332 280.18 8.244V12H278.764V11.22C278.58 11.5 278.316 11.716 277.972 11.868C277.636 12.012 277.228 12.084 276.748 12.084C276.268 12.084 275.848 12.004 275.488 11.844C275.128 11.676 274.848 11.448 274.648 11.16C274.456 10.864 274.36 10.532 274.36 10.164C274.36 9.588 274.572 9.128 274.996 8.784C275.428 8.432 276.104 8.256 277.024 8.256H278.68V8.16C278.68 7.712 278.544 7.368 278.272 7.128C278.008 6.888 277.612 6.768 277.084 6.768C276.724 6.768 276.368 6.824 276.016 6.936C275.672 7.048 275.38 7.204 275.14 7.404L274.552 6.312C274.888 6.056 275.292 5.86 275.764 5.724C276.236 5.588 276.736 5.52 277.264 5.52ZM277.06 10.992C277.436 10.992 277.768 10.908 278.056 10.74C278.352 10.564 278.56 10.316 278.68 9.996V9.252H277.132C276.268 9.252 275.836 9.536 275.836 10.104C275.836 10.376 275.944 10.592 276.16 10.752C276.376 10.912 276.676 10.992 277.06 10.992ZM285.957 11.652C285.781 11.796 285.565 11.904 285.309 11.976C285.061 12.048 284.797 12.084 284.517 12.084C283.813 12.084 283.269 11.9 282.885 11.532C282.501 11.164 282.309 10.628 282.309 9.924V6.84H281.253V5.64H282.309V4.176H283.809V5.64H285.525V6.84H283.809V9.888C283.809 10.2 283.885 10.44 284.037 10.608C284.189 10.768 284.409 10.848 284.697 10.848C285.033 10.848 285.313 10.76 285.537 10.584L285.957 11.652ZM287.191 5.592H288.691V12H287.191V5.592ZM287.947 4.536C287.675 4.536 287.447 4.452 287.263 4.284C287.079 4.108 286.987 3.892 286.987 3.636C286.987 3.38 287.079 3.168 287.263 3C287.447 2.824 287.675 2.736 287.947 2.736C288.219 2.736 288.447 2.82 288.631 2.988C288.815 3.148 288.907 3.352 288.907 3.6C288.907 3.864 288.815 4.088 288.631 4.272C288.455 4.448 288.227 4.536 287.947 4.536ZM293.54 12.084C292.892 12.084 292.308 11.944 291.788 11.664C291.268 11.384 290.86 10.996 290.564 10.5C290.276 9.996 290.132 9.428 290.132 8.796C290.132 8.164 290.276 7.6 290.564 7.104C290.86 6.608 291.268 6.22 291.788 5.94C292.308 5.66 292.892 5.52 293.54 5.52C294.196 5.52 294.784 5.66 295.304 5.94C295.824 6.22 296.228 6.608 296.516 7.104C296.812 7.6 296.96 8.164 296.96 8.796C296.96 9.428 296.812 9.996 296.516 10.5C296.228 10.996 295.824 11.384 295.304 11.664C294.784 11.944 294.196 12.084 293.54 12.084ZM293.54 10.8C294.092 10.8 294.548 10.616 294.908 10.248C295.268 9.88 295.448 9.396 295.448 8.796C295.448 8.196 295.268 7.712 294.908 7.344C294.548 6.976 294.092 6.792 293.54 6.792C292.988 6.792 292.532 6.976 292.172 7.344C291.82 7.712 291.644 8.196 291.644 8.796C291.644 9.396 291.82 9.88 292.172 10.248C292.532 10.616 292.988 10.8 293.54 10.8ZM302.03 5.52C302.838 5.52 303.486 5.756 303.974 6.228C304.462 6.7 304.706 7.4 304.706 8.328V12H303.206V8.52C303.206 7.96 303.074 7.54 302.81 7.26C302.546 6.972 302.17 6.828 301.682 6.828C301.13 6.828 300.694 6.996 300.374 7.332C300.054 7.66 299.894 8.136 299.894 8.76V12H298.394V5.592H299.822V6.42C300.07 6.124 300.382 5.9 300.758 5.748C301.134 5.596 301.558 5.52 302.03 5.52Z" fill="black"/>
<path d="M262.5 28C262.5 31.5 258 34.5 258 34.5C258 34.5 253.5 31.5 253.5 28C253.5 26.8065 253.974 25.6619 254.818 24.818C255.662 23.9741 256.807 23.5 258 23.5C259.193 23.5 260.338 23.9741 261.182 24.818C262.026 25.6619 262.5 26.8065 262.5 28Z" stroke="#8D8D8D" stroke-linecap="round" stroke-linejoin="round"/>
<path d="M258 29.5C258.828 29.5 259.5 28.8284 259.5 28C259.5 27.1716 258.828 26.5 258 26.5C257.172 26.5 256.5 27.1716 256.5 28C256.5 28.8284 257.172 29.5 258 29.5Z" stroke="#8D8D8D" stroke-linecap="round" stroke-linejoin="round"/>
<path d="M273.13 31.13V32H268.05V25H272.99V25.87H269.05V28.02H272.56V28.87H269.05V31.13H273.13ZM279.211 26.7L276.891 32H275.911L273.591 26.7H274.591L276.411 30.95L278.271 26.7H279.211ZM284.751 29.38C284.751 29.4533 284.744 29.55 284.731 29.67H280.431C280.491 30.1367 280.694 30.5133 281.041 30.8C281.394 31.08 281.831 31.22 282.351 31.22C282.984 31.22 283.494 31.0067 283.881 30.58L284.411 31.2C284.171 31.48 283.871 31.6933 283.511 31.84C283.157 31.9867 282.761 32.06 282.321 32.06C281.761 32.06 281.264 31.9467 280.831 31.72C280.397 31.4867 280.061 31.1633 279.821 30.75C279.587 30.3367 279.471 29.87 279.471 29.35C279.471 28.8367 279.584 28.3733 279.811 27.96C280.044 27.5467 280.361 27.2267 280.761 27C281.167 26.7667 281.624 26.65 282.131 26.65C282.637 26.65 283.087 26.7667 283.481 27C283.881 27.2267 284.191 27.5467 284.411 27.96C284.637 28.3733 284.751 28.8467 284.751 29.38ZM282.131 27.46C281.671 27.46 281.284 27.6 280.971 27.88C280.664 28.16 280.484 28.5267 280.431 28.98H283.831C283.777 28.5333 283.594 28.17 283.281 27.89C282.974 27.6033 282.591 27.46 282.131 27.46ZM288.914 26.65C289.587 26.65 290.12 26.8467 290.514 27.24C290.914 27.6267 291.114 28.1967 291.114 28.95V32H290.154V29.06C290.154 28.5467 290.03 28.16 289.784 27.9C289.537 27.64 289.184 27.51 288.724 27.51C288.204 27.51 287.794 27.6633 287.494 27.97C287.194 28.27 287.044 28.7033 287.044 29.27V32H286.084V26.7H287.004V27.5C287.197 27.2267 287.457 27.0167 287.784 26.87C288.117 26.7233 288.494 26.65 288.914 26.65ZM295.87 31.69C295.73 31.81 295.557 31.9033 295.35 31.97C295.144 32.03 294.93 32.06 294.71 32.06C294.177 32.06 293.764 31.9167 293.47 31.63C293.177 31.3433 293.03 30.9333 293.03 30.4V27.49H292.13V26.7H293.03V25.54H293.99V26.7H295.51V27.49H293.99V30.36C293.99 30.6467 294.06 30.8667 294.2 31.02C294.347 31.1733 294.554 31.25 294.82 31.25C295.114 31.25 295.364 31.1667 295.57 31L295.87 31.69ZM303.017 32.08C302.31 32.08 301.673 31.9267 301.107 31.62C300.54 31.3067 300.093 30.8767 299.767 30.33C299.447 29.7833 299.287 29.1733 299.287 28.5C299.287 27.8267 299.447 27.2167 299.767 26.67C300.093 26.1233 300.54 25.6967 301.107 25.39C301.673 25.0767 302.31 24.92 303.017 24.92C303.717 24.92 304.35 25.0767 304.917 25.39C305.483 25.6967 305.927 26.1233 306.247 26.67C306.567 27.21 306.727 27.82 306.727 28.5C306.727 29.18 306.567 29.7933 306.247 30.34C305.927 30.88 305.483 31.3067 304.917 31.62C304.35 31.9267 303.717 32.08 303.017 32.08ZM303.017 31.19C303.53 31.19 303.99 31.0733 304.397 30.84C304.81 30.6067 305.133 30.2867 305.367 29.88C305.607 29.4667 305.727 29.0067 305.727 28.5C305.727 27.9933 305.607 27.5367 305.367 27.13C305.133 26.7167 304.81 26.3933 304.397 26.16C303.99 25.9267 303.53 25.81 303.017 25.81C302.503 25.81 302.037 25.9267 301.617 26.16C301.203 26.3933 300.877 26.7167 300.637 27.13C300.403 27.5367 300.287 27.9933 300.287 28.5C300.287 29.0067 300.403 29.4667 300.637 29.88C300.877 30.2867 301.203 30.6067 301.617 30.84C302.037 31.0733 302.503 31.19 303.017 31.19ZM310.945 26.65C311.618 26.65 312.152 26.8467 312.545 27.24C312.945 27.6267 313.145 28.1967 313.145 28.95V32H312.185V29.06C312.185 28.5467 312.062 28.16 311.815 27.9C311.568 27.64 311.215 27.51 310.755 27.51C310.235 27.51 309.825 27.6633 309.525 27.97C309.225 28.27 309.075 28.7033 309.075 29.27V32H308.115V26.7H309.035V27.5C309.228 27.2267 309.488 27.0167 309.815 26.87C310.148 26.7233 310.525 26.65 310.945 26.65ZM314.922 24.58H315.882V32H314.922V24.58ZM317.715 26.7H318.675V32H317.715V26.7ZM318.195 25.68C318.008 25.68 317.851 25.62 317.725 25.5C317.605 25.38 317.545 25.2333 317.545 25.06C317.545 24.8867 317.605 24.74 317.725 24.62C317.851 24.4933 318.008 24.43 318.195 24.43C318.381 24.43 318.535 24.49 318.655 24.61C318.781 24.7233 318.845 24.8667 318.845 25.04C318.845 25.22 318.781 25.3733 318.655 25.5C318.535 25.62 318.381 25.68 318.195 25.68ZM323.338 26.65C324.011 26.65 324.544 26.8467 324.938 27.24C325.338 27.6267 325.538 28.1967 325.538 28.95V32H324.578V29.06C324.578 28.5467 324.454 28.16 324.208 27.9C323.961 27.64 323.608 27.51 323.148 27.51C322.628 27.51 322.218 27.6633 321.918 27.97C321.618 28.27 321.468 28.7033 321.468 29.27V32H320.508V26.7H321.428V27.5C321.621 27.2267 321.881 27.0167 322.208 26.87C322.541 26.7233 322.918 26.65 323.338 26.65ZM332.134 29.38C332.134 29.4533 332.127 29.55 332.114 29.67H327.814C327.874 30.1367 328.077 30.5133 328.424 30.8C328.777 31.08 329.214 31.22 329.734 31.22C330.367 31.22 330.877 31.0067 331.264 30.58L331.794 31.2C331.554 31.48 331.254 31.6933 330.894 31.84C330.54 31.9867 330.144 32.06 329.704 32.06C329.144 32.06 328.647 31.9467 328.214 31.72C327.78 31.4867 327.444 31.1633 327.204 30.75C326.97 30.3367 326.854 29.87 326.854 29.35C326.854 28.8367 326.967 28.3733 327.194 27.96C327.427 27.5467 327.744 27.2267 328.144 27C328.55 26.7667 329.007 26.65 329.514 26.65C330.02 26.65 330.47 26.7667 330.864 27C331.264 27.2267 331.574 27.5467 331.794 27.96C332.02 28.3733 332.134 28.8467 332.134 29.38ZM329.514 27.46C329.054 27.46 328.667 27.6 328.354 27.88C328.047 28.16 327.867 28.5267 327.814 28.98H331.214C331.16 28.5333 330.977 28.17 330.664 27.89C330.357 27.6033 329.974 27.46 329.514 27.46ZM333.697 32.06C333.51 32.06 333.35 31.9967 333.217 31.87C333.083 31.7367 333.017 31.57 333.017 31.37C333.017 31.1767 333.083 31.0167 333.217 30.89C333.35 30.7567 333.51 30.69 333.697 30.69C333.883 30.69 334.04 30.7533 334.167 30.88C334.293 31.0067 334.357 31.17 334.357 31.37C334.357 31.57 334.29 31.7367 334.157 31.87C334.03 31.9967 333.877 32.06 333.697 32.06ZM268.05 37H269.05V43.13H272.84V44H268.05V37ZM273.848 38.7H274.808V44H273.848V38.7ZM274.328 37.68C274.141 37.68 273.984 37.62 273.858 37.5C273.738 37.38 273.678 37.2333 273.678 37.06C273.678 36.8867 273.738 36.74 273.858 36.62C273.984 36.4933 274.141 36.43 274.328 36.43C274.514 36.43 274.668 36.49 274.788 36.61C274.914 36.7233 274.978 36.8667 274.978 37.04C274.978 37.22 274.914 37.3733 274.788 37.5C274.668 37.62 274.514 37.68 274.328 37.68ZM279.47 38.65C280.144 38.65 280.677 38.8467 281.07 39.24C281.47 39.6267 281.67 40.1967 281.67 40.95V44H280.71V41.06C280.71 40.5467 280.587 40.16 280.34 39.9C280.094 39.64 279.74 39.51 279.28 39.51C278.76 39.51 278.35 39.6633 278.05 39.97C277.75 40.27 277.6 40.7033 277.6 41.27V44H276.64V38.7H277.56V39.5C277.754 39.2267 278.014 39.0167 278.34 38.87C278.674 38.7233 279.05 38.65 279.47 38.65ZM285.507 41.53L284.407 42.55V44H283.447V36.58H284.407V41.34L287.297 38.7H288.457L286.227 40.89L288.677 44H287.497L285.507 41.53ZM298.455 37V44H297.455V40.88H293.435V44H292.435V37H293.435V40.01H297.455V37H298.455ZM300.07 40.84H302.76V41.67H300.07V40.84ZM305.802 37V44H304.812V37.87H303.232V37H305.802ZM308.004 42.69C308.19 42.69 308.344 42.7567 308.464 42.89C308.59 43.0167 308.654 43.1767 308.654 43.37C308.654 43.47 308.64 43.5667 308.614 43.66C308.594 43.7533 308.55 43.8967 308.484 44.09L308.014 45.48H307.384L307.754 43.99C307.627 43.9433 307.524 43.8667 307.444 43.76C307.37 43.6467 307.334 43.5167 307.334 43.37C307.334 43.17 307.397 43.0067 307.524 42.88C307.65 42.7533 307.81 42.69 308.004 42.69ZM268.05 49H271C271.74 49 272.397 49.1467 272.97 49.44C273.543 49.7333 273.987 50.1467 274.3 50.68C274.62 51.2067 274.78 51.8133 274.78 52.5C274.78 53.1867 274.62 53.7967 274.3 54.33C273.987 54.8567 273.543 55.2667 272.97 55.56C272.397 55.8533 271.74 56 271 56H268.05V49ZM270.94 55.13C271.507 55.13 272.003 55.02 272.43 54.8C272.863 54.58 273.197 54.2733 273.43 53.88C273.663 53.48 273.78 53.02 273.78 52.5C273.78 51.98 273.663 51.5233 273.43 51.13C273.197 50.73 272.863 50.42 272.43 50.2C272.003 49.98 271.507 49.87 270.94 49.87H269.05V55.13H270.94ZM278.592 52.89L277.312 54.19V56H276.312V49H277.312V52.91L281.112 49H282.252L279.262 52.15L282.442 56H281.272L278.592 52.89ZM283.499 49H284.499V56H283.499V49ZM290.18 56.08C289.76 56.08 289.37 55.9933 289.01 55.82C288.65 55.64 288.36 55.39 288.14 55.07L288.72 54.39C289.107 54.9433 289.594 55.22 290.18 55.22C290.574 55.22 290.87 55.1 291.07 54.86C291.277 54.62 291.38 54.2667 291.38 53.8V49.87H288.85V49H292.37V53.75C292.37 54.5233 292.184 55.1067 291.81 55.5C291.444 55.8867 290.9 56.08 290.18 56.08ZM296.197 50.65C296.931 50.65 297.491 50.83 297.877 51.19C298.271 51.55 298.467 52.0867 298.467 52.8V56H297.557V55.3C297.397 55.5467 297.167 55.7367 296.867 55.87C296.574 55.9967 296.224 56.06 295.817 56.06C295.224 56.06 294.747 55.9167 294.387 55.63C294.034 55.3433 293.857 54.9667 293.857 54.5C293.857 54.0333 294.027 53.66 294.367 53.38C294.707 53.0933 295.247 52.95 295.987 52.95H297.507V52.76C297.507 52.3467 297.387 52.03 297.147 51.81C296.907 51.59 296.554 51.48 296.087 51.48C295.774 51.48 295.467 51.5333 295.167 51.64C294.867 51.74 294.614 51.8767 294.407 52.05L294.007 51.33C294.281 51.11 294.607 50.9433 294.987 50.83C295.367 50.71 295.771 50.65 296.197 50.65ZM295.977 55.32C296.344 55.32 296.661 55.24 296.927 55.08C297.194 54.9133 297.387 54.68 297.507 54.38V53.64H296.027C295.214 53.64 294.807 53.9133 294.807 54.46C294.807 54.7267 294.911 54.9367 295.117 55.09C295.324 55.2433 295.611 55.32 295.977 55.32ZM302.304 53.53L301.204 54.55V56H300.244V48.58H301.204V53.34L304.094 50.7H305.254L303.024 52.89L305.474 56H304.294L302.304 53.53ZM308.238 50.65C308.972 50.65 309.532 50.83 309.918 51.19C310.312 51.55 310.508 52.0867 310.508 52.8V56H309.598V55.3C309.438 55.5467 309.208 55.7367 308.908 55.87C308.615 55.9967 308.265 56.06 307.858 56.06C307.265 56.06 306.788 55.9167 306.428 55.63C306.075 55.3433 305.898 54.9667 305.898 54.5C305.898 54.0333 306.068 53.66 306.408 53.38C306.748 53.0933 307.288 52.95 308.028 52.95H309.548V52.76C309.548 52.3467 309.428 52.03 309.188 51.81C308.948 51.59 308.595 51.48 308.128 51.48C307.815 51.48 307.508 51.5333 307.208 51.64C306.908 51.74 306.655 51.8767 306.448 52.05L306.048 51.33C306.322 51.11 306.648 50.9433 307.028 50.83C307.408 50.71 307.812 50.65 308.238 50.65ZM308.018 55.32C308.385 55.32 308.702 55.24 308.968 55.08C309.235 54.9133 309.428 54.68 309.548 54.38V53.64H308.068C307.255 53.64 306.848 53.9133 306.848 54.46C306.848 54.7267 306.952 54.9367 307.158 55.09C307.365 55.2433 307.652 55.32 308.018 55.32ZM313.205 51.59C313.372 51.2833 313.618 51.05 313.945 50.89C314.272 50.73 314.668 50.65 315.135 50.65V51.58C315.082 51.5733 315.008 51.57 314.915 51.57C314.395 51.57 313.985 51.7267 313.685 52.04C313.392 52.3467 313.245 52.7867 313.245 53.36V56H312.285V50.7H313.205V51.59ZM319.513 55.69C319.373 55.81 319.2 55.9033 318.993 55.97C318.786 56.03 318.573 56.06 318.353 56.06C317.82 56.06 317.406 55.9167 317.113 55.63C316.82 55.3433 316.673 54.9333 316.673 54.4V51.49H315.773V50.7H316.673V49.54H317.633V50.7H319.153V51.49H317.633V54.36C317.633 54.6467 317.703 54.8667 317.843 55.02C317.99 55.1733 318.196 55.25 318.463 55.25C318.756 55.25 319.006 55.1667 319.213 55L319.513 55.69ZM322.604 50.65C323.337 50.65 323.897 50.83 324.284 51.19C324.677 51.55 324.874 52.0867 324.874 52.8V56H323.964V55.3C323.804 55.5467 323.574 55.7367 323.274 55.87C322.98 55.9967 322.63 56.06 322.224 56.06C321.63 56.06 321.154 55.9167 320.794 55.63C320.44 55.3433 320.264 54.9667 320.264 54.5C320.264 54.0333 320.434 53.66 320.774 53.38C321.114 53.0933 321.654 52.95 322.394 52.95H323.914V52.76C323.914 52.3467 323.794 52.03 323.554 51.81C323.314 51.59 322.96 51.48 322.494 51.48C322.18 51.48 321.874 51.5333 321.574 51.64C321.274 51.74 321.02 51.8767 320.814 52.05L320.414 51.33C320.687 51.11 321.014 50.9433 321.394 50.83C321.774 50.71 322.177 50.65 322.604 50.65ZM322.384 55.32C322.75 55.32 323.067 55.24 323.334 55.08C323.6 54.9133 323.794 54.68 323.914 54.38V53.64H322.434C321.62 53.64 321.214 53.9133 321.214 54.46C321.214 54.7267 321.317 54.9367 321.524 55.09C321.73 55.2433 322.017 55.32 322.384 55.32Z" fill="#8D8D8D"/>
<defs>
<clipPath id="clip0">
<rect width="52" height="36" fill="white" transform="translate(2 20)"/>
</clipPath>
</defs>
</svg>
