<svg width="38" height="39" viewBox="0 0 38 39" fill="none" xmlns="http://www.w3.org/2000/svg">
<path fill-rule="evenodd" clip-rule="evenodd" d="M6.94839 12.0586C6.94839 5.40665 12.3577 0 19 0C25.6423 0 31.0516 5.40665 31.0516 12.0586C31.0516 18.6965 25.6423 24.1032 19 24.1032C12.3577 24.1032 6.94839 18.6965 6.94839 12.0586ZM23.4204 13.2781C23.5484 13.1502 23.7112 12.9525 23.7461 12.906C23.9322 12.6619 24.0253 12.3595 24.0253 12.0584C24.0253 11.72 23.9206 11.4061 23.7228 11.1503C23.7066 11.1341 23.6749 11.0996 23.6335 11.0545C23.5562 10.9703 23.4451 10.8494 23.339 10.7434C22.3851 9.72017 19.8956 8.04585 18.5928 7.53426C18.395 7.45403 17.8948 7.27846 17.6273 7.26683C17.3713 7.26683 17.127 7.32497 16.8944 7.44124C16.6036 7.60402 16.3709 7.85982 16.2429 8.16212C16.1615 8.37141 16.0336 8.99928 16.0336 9.01091C15.9056 9.69692 15.8358 10.8131 15.8358 12.0456C15.8358 13.2211 15.9056 14.2897 16.0103 14.9873C16.0132 14.9902 16.0232 15.0401 16.0387 15.1176C16.086 15.3532 16.1844 15.8441 16.2895 16.0454C16.5454 16.5337 17.0456 16.836 17.5807 16.836H17.6273C17.9762 16.8244 18.7091 16.5221 18.7091 16.5105C19.9422 15.9989 22.3734 14.4059 23.3506 13.3479L23.4204 13.2781Z" fill="#F96209"/>
<path d="M12.3015 31.2032L10.1525 36.1032H9.45955L7.30355 31.2032H8.05955L9.82355 35.2282L11.6015 31.2032H12.3015ZM12.9264 31.2032H13.6264V36.1032H12.9264V31.2032ZM15.0934 31.2032H17.1584C17.6764 31.2032 18.1361 31.3059 18.5374 31.5112C18.9387 31.7165 19.2491 32.0059 19.4684 32.3792C19.6924 32.7479 19.8044 33.1725 19.8044 33.6532C19.8044 34.1339 19.6924 34.5609 19.4684 34.9342C19.2491 35.3029 18.9387 35.5899 18.5374 35.7952C18.1361 36.0005 17.6764 36.1032 17.1584 36.1032H15.0934V31.2032ZM17.1164 35.4942C17.5131 35.4942 17.8607 35.4172 18.1594 35.2632C18.4627 35.1092 18.6961 34.8945 18.8594 34.6192C19.0227 34.3392 19.1044 34.0172 19.1044 33.6532C19.1044 33.2892 19.0227 32.9695 18.8594 32.6942C18.6961 32.4142 18.4627 32.1972 18.1594 32.0432C17.8607 31.8892 17.5131 31.8122 17.1164 31.8122H15.7934V35.4942H17.1164ZM24.4326 35.4942V36.1032H20.8766V31.2032H24.3346V31.8122H21.5766V33.3172H24.0336V33.9122H21.5766V35.4942H24.4326ZM27.7575 36.1592C27.2629 36.1592 26.8172 36.0519 26.4205 35.8372C26.0239 35.6179 25.7112 35.3169 25.4825 34.9342C25.2585 34.5515 25.1465 34.1245 25.1465 33.6532C25.1465 33.1819 25.2585 32.7549 25.4825 32.3722C25.7112 31.9895 26.0239 31.6909 26.4205 31.4762C26.8172 31.2569 27.2629 31.1472 27.7575 31.1472C28.2475 31.1472 28.6909 31.2569 29.0875 31.4762C29.4842 31.6909 29.7945 31.9895 30.0185 32.3722C30.2425 32.7502 30.3545 33.1772 30.3545 33.6532C30.3545 34.1292 30.2425 34.5585 30.0185 34.9412C29.7945 35.3192 29.4842 35.6179 29.0875 35.8372C28.6909 36.0519 28.2475 36.1592 27.7575 36.1592ZM27.7575 35.5362C28.1169 35.5362 28.4389 35.4545 28.7235 35.2912C29.0129 35.1279 29.2392 34.9039 29.4025 34.6192C29.5705 34.3299 29.6545 34.0079 29.6545 33.6532C29.6545 33.2985 29.5705 32.9789 29.4025 32.6942C29.2392 32.4049 29.0129 32.1785 28.7235 32.0152C28.4389 31.8519 28.1169 31.7702 27.7575 31.7702C27.3982 31.7702 27.0715 31.8519 26.7775 32.0152C26.4882 32.1785 26.2595 32.4049 26.0915 32.6942C25.9282 32.9789 25.8465 33.2985 25.8465 33.6532C25.8465 34.0079 25.9282 34.3299 26.0915 34.6192C26.2595 34.9039 26.4882 35.1279 26.7775 35.2912C27.0715 35.4545 27.3982 35.5362 27.7575 35.5362Z" fill="black"/>
</svg>
