<svg width="27" height="38" viewBox="0 0 27 38" fill="none" xmlns="http://www.w3.org/2000/svg">
<path fill-rule="evenodd" clip-rule="evenodd" d="M9.91869 17.1661H16.1935C16.6664 17.1661 17.0586 16.77 17.0586 16.2923C17.0586 15.8147 16.6664 15.4302 16.1935 15.4302H9.91869C9.44578 15.4302 9.0536 15.8147 9.0536 16.2923C9.0536 16.77 9.44578 17.1661 9.91869 17.1661ZM13.8174 9.60519H9.91869C9.44578 9.60519 9.0536 10.0013 9.0536 10.4789C9.0536 10.9566 9.44578 11.341 9.91869 11.341H13.8174C14.2903 11.341 14.6825 10.9566 14.6825 10.4789C14.6825 10.0013 14.2903 9.60519 13.8174 9.60519ZM22.0487 8.58648C22.3199 8.58335 22.6151 8.57995 22.8833 8.57995C23.1717 8.57995 23.4024 8.81295 23.4024 9.10419V18.4707C23.4024 21.3599 21.0839 23.7015 18.2234 23.7015H9.04189C6.04292 23.7015 3.5976 21.2434 3.5976 18.2144V5.65583C3.5976 2.76666 5.92757 0.401733 8.79967 0.401733H14.9591C15.259 0.401733 15.4897 0.646381 15.4897 0.937628V4.68889C15.4897 6.82082 17.2314 8.5683 19.3422 8.57995C19.8353 8.57995 20.2699 8.58363 20.6503 8.58686C20.9463 8.58937 21.2093 8.5916 21.4415 8.5916C21.6057 8.5916 21.8185 8.58914 22.0487 8.58648ZM22.3668 6.88607C21.4186 6.88956 20.3009 6.88607 19.497 6.87791C18.2213 6.87791 17.1705 5.81661 17.1705 4.52813V1.45722C17.1705 0.955114 17.7737 0.705806 18.1186 1.06812C18.7421 1.72295 19.5988 2.62282 20.4518 3.51885C21.3044 4.41456 22.1535 5.30645 22.7624 5.94592C23.0992 6.29891 22.8524 6.8849 22.3668 6.88607Z" fill="#F96209"/>
<path d="M4.41725 33.1605C4.70192 33.2398 4.92592 33.3845 5.08925 33.5945C5.25259 33.7998 5.33425 34.0611 5.33425 34.3785C5.33425 34.8031 5.17325 35.1298 4.85125 35.3585C4.53392 35.5871 4.06959 35.7015 3.45825 35.7015H1.12025V30.8015H3.31825C3.87825 30.8015 4.30992 30.9135 4.61325 31.1375C4.92125 31.3615 5.07525 31.6718 5.07525 32.0685C5.07525 32.3251 5.01459 32.5468 4.89325 32.7335C4.77659 32.9201 4.61792 33.0625 4.41725 33.1605ZM1.82025 31.3685V32.9365H3.25525C3.61459 32.9365 3.88992 32.8711 4.08125 32.7405C4.27725 32.6051 4.37525 32.4091 4.37525 32.1525C4.37525 31.8958 4.27725 31.7021 4.08125 31.5715C3.88992 31.4361 3.61459 31.3685 3.25525 31.3685H1.82025ZM3.43025 35.1345C3.82692 35.1345 4.12559 35.0691 4.32625 34.9385C4.52692 34.8078 4.62725 34.6025 4.62725 34.3225C4.62725 33.7765 4.22825 33.5035 3.43025 33.5035H1.82025V35.1345H3.43025ZM9.97411 35.0925V35.7015H6.41811V30.8015H9.87611V31.4105H7.11811V32.9155H9.57511V33.5105H7.11811V35.0925H9.97411ZM14.3836 35.7015L13.3266 34.1965C13.1959 34.2058 13.0932 34.2105 13.0186 34.2105H11.8076V35.7015H11.1076V30.8015H13.0186C13.6532 30.8015 14.1526 30.9531 14.5166 31.2565C14.8806 31.5598 15.0626 31.9775 15.0626 32.5095C15.0626 32.8875 14.9692 33.2095 14.7826 33.4755C14.5959 33.7415 14.3299 33.9351 13.9846 34.0565L15.1466 35.7015H14.3836ZM12.9976 33.6155C13.4409 33.6155 13.7792 33.5198 14.0126 33.3285C14.2459 33.1371 14.3626 32.8641 14.3626 32.5095C14.3626 32.1548 14.2459 31.8841 14.0126 31.6975C13.7792 31.5061 13.4409 31.4105 12.9976 31.4105H11.8076V33.6155H12.9976ZM16.1935 30.8015H16.8935V35.7015H16.1935V30.8015ZM19.3335 31.4105H17.6535V30.8015H21.7065V31.4105H20.0265V35.7015H19.3335V31.4105ZM25.3448 34.4765H22.7408L22.2018 35.7015H21.4808L23.6998 30.8015H24.3928L26.6188 35.7015H25.8838L25.3448 34.4765ZM25.0998 33.9165L24.0428 31.5155L22.9858 33.9165H25.0998Z" fill="black"/>
</svg>
