<svg width="37" height="39" viewBox="0 0 37 39" fill="none" xmlns="http://www.w3.org/2000/svg">
<path d="M15.0469 22.6249V18.9398C15.0469 17.9991 15.8151 17.2366 16.7627 17.2366H20.2265C20.6815 17.2366 21.1179 17.416 21.4397 17.7354C21.7615 18.0549 21.9422 18.4881 21.9422 18.9398V22.6249C21.9394 23.016 22.0938 23.392 22.3714 23.6696C22.649 23.9471 23.0266 24.1032 23.4206 24.1032H25.7838C26.8875 24.106 27.9469 23.6728 28.7284 22.899C29.5098 22.1253 29.949 21.0746 29.949 19.9789V9.48082C29.949 8.59575 29.5538 7.75622 28.8699 7.18838L20.8308 0.81453C19.4324 -0.303023 17.4287 -0.26694 16.0721 0.900229L8.21637 7.18838C7.50018 7.73948 7.07212 8.5815 7.05096 9.48082V19.9682C7.05096 22.2519 8.91581 24.1032 11.2162 24.1032H13.5254C14.3437 24.1032 15.0086 23.4478 15.0146 22.6356L15.0469 22.6249Z" fill="#F96209"/>
<path d="M4.17067 33.5622C4.45534 33.6415 4.67934 33.7862 4.84267 33.9962C5.00601 34.2015 5.08767 34.4629 5.08767 34.7802C5.08767 35.2049 4.92667 35.5315 4.60467 35.7602C4.28734 35.9889 3.82301 36.1032 3.21167 36.1032H0.873672V31.2032H3.07167C3.63167 31.2032 4.06334 31.3152 4.36667 31.5392C4.67467 31.7632 4.82867 32.0735 4.82867 32.4702C4.82867 32.7269 4.76801 32.9485 4.64667 33.1352C4.53001 33.3219 4.37134 33.4642 4.17067 33.5622ZM1.57367 31.7702V33.3382H3.00867C3.36801 33.3382 3.64334 33.2729 3.83467 33.1422C4.03067 33.0069 4.12867 32.8109 4.12867 32.5542C4.12867 32.2975 4.03067 32.1039 3.83467 31.9732C3.64334 31.8379 3.36801 31.7702 3.00867 31.7702H1.57367ZM3.18367 35.5362C3.58034 35.5362 3.87901 35.4709 4.07967 35.3402C4.28034 35.2095 4.38067 35.0042 4.38067 34.7242C4.38067 34.1782 3.98167 33.9052 3.18367 33.9052H1.57367V35.5362H3.18367ZM9.72752 35.4942V36.1032H6.17152V31.2032H9.62952V31.8122H6.87152V33.3172H9.32852V33.9122H6.87152V35.4942H9.72752ZM14.137 36.1032L13.08 34.5982C12.9493 34.6075 12.8466 34.6122 12.772 34.6122H11.561V36.1032H10.861V31.2032H12.772C13.4066 31.2032 13.906 31.3549 14.27 31.6582C14.634 31.9615 14.816 32.3792 14.816 32.9112C14.816 33.2892 14.7226 33.6112 14.536 33.8772C14.3493 34.1432 14.0833 34.3369 13.738 34.4582L14.9 36.1032H14.137ZM12.751 34.0172C13.1943 34.0172 13.5326 33.9215 13.766 33.7302C13.9993 33.5389 14.116 33.2659 14.116 32.9112C14.116 32.5565 13.9993 32.2859 13.766 32.0992C13.5326 31.9079 13.1943 31.8122 12.751 31.8122H11.561V34.0172H12.751ZM19.0689 34.8782H16.4649L15.9259 36.1032H15.2049L17.4239 31.2032H18.1169L20.3429 36.1032H19.6079L19.0689 34.8782ZM18.8239 34.3182L17.7669 31.9172L16.7099 34.3182H18.8239ZM25.2879 31.2032V36.1032H24.7139L21.7739 32.4492V36.1032H21.0739V31.2032H21.6479L24.5879 34.8572V31.2032H25.2879ZM26.7545 31.2032H28.8195C29.3375 31.2032 29.7972 31.3059 30.1985 31.5112C30.5999 31.7165 30.9102 32.0059 31.1295 32.3792C31.3535 32.7479 31.4655 33.1725 31.4655 33.6532C31.4655 34.1339 31.3535 34.5609 31.1295 34.9342C30.9102 35.3029 30.5999 35.5899 30.1985 35.7952C29.7972 36.0005 29.3375 36.1032 28.8195 36.1032H26.7545V31.2032ZM28.7775 35.4942C29.1742 35.4942 29.5219 35.4172 29.8205 35.2632C30.1239 35.1092 30.3572 34.8945 30.5205 34.6192C30.6839 34.3392 30.7655 34.0172 30.7655 33.6532C30.7655 33.2892 30.6839 32.9695 30.5205 32.6942C30.3572 32.4142 30.1239 32.1972 29.8205 32.0432C29.5219 31.8892 29.1742 31.8122 28.7775 31.8122H27.4545V35.4942H28.7775ZM35.5914 34.8782H32.9874L32.4484 36.1032H31.7274L33.9464 31.2032H34.6394L36.8654 36.1032H36.1304L35.5914 34.8782ZM35.3464 34.3182L34.2894 31.9172L33.2324 34.3182H35.3464Z" fill="black"/>
</svg>
