<svg width="35" height="38" viewBox="0 0 35 38" fill="none" xmlns="http://www.w3.org/2000/svg">
<path d="M14.7298 4.83863C15.7806 2.44626 16.306 1.25008 17.1596 1.0843C17.384 1.04071 17.616 1.04071 17.8404 1.0843C18.694 1.25008 19.2194 2.44626 20.2702 4.83862C20.8678 6.19912 21.1666 6.87936 21.7257 7.34203C21.8825 7.47181 22.0527 7.58739 22.234 7.68715C22.8801 8.04283 23.6868 8.1088 25.3001 8.24075C28.0312 8.46412 29.3967 8.5758 29.8137 9.28684C29.9001 9.4341 29.9588 9.59354 29.9874 9.75854C30.1257 10.5552 29.1218 11.3893 27.1141 13.0574L26.5565 13.5206C25.6179 14.3005 25.1486 14.6905 24.8771 15.1771C24.7142 15.469 24.6051 15.7834 24.5539 16.1077C24.4686 16.6482 24.606 17.2139 24.8809 18.3453L24.9791 18.7495C25.4721 20.7785 25.7185 21.7929 25.4109 22.2916C25.1345 22.7395 24.6254 23.0263 24.0631 23.0508C23.4371 23.0781 22.555 22.4217 20.7908 21.1088C19.6285 20.2439 19.0473 19.8114 18.4022 19.6425C17.8126 19.4881 17.1874 19.4881 16.5978 19.6425C15.9527 19.8114 15.3715 20.2439 14.2092 21.1088C12.445 22.4217 11.5629 23.0781 10.9369 23.0508C10.3746 23.0263 9.86551 22.7395 9.58915 22.2916C9.28148 21.7929 9.52795 20.7785 10.0209 18.7495L10.1191 18.3453C10.394 17.2139 10.5314 16.6482 10.4461 16.1077C10.3949 15.7834 10.2858 15.469 10.1229 15.1771C9.85145 14.6905 9.38212 14.3005 8.44347 13.5206L7.88594 13.0574C5.8782 11.3893 4.87433 10.5552 5.01258 9.75854C5.04121 9.59354 5.09993 9.4341 5.1863 9.28684C5.6033 8.5758 6.96882 8.46412 9.69988 8.24075C11.3132 8.1088 12.1199 8.04283 12.766 7.68715C12.9473 7.58739 13.1175 7.47181 13.2743 7.34203C13.8334 6.87936 14.1322 6.19912 14.7298 4.83863Z" fill="#F96209" stroke="#F96209" stroke-width="2"/>
<path d="M1.93017 30.7606H0.250168V30.1516H4.30317V30.7606H2.62317V35.0516H1.93017V30.7606ZM8.62157 34.4426V35.0516H5.06557V30.1516H8.52357V30.7606H5.76557V32.2656H8.22257V32.8606H5.76557V34.4426H8.62157ZM13.969 30.1516V35.0516H13.395L10.455 31.3976V35.0516H9.75502V30.1516H10.329L13.269 33.8056V30.1516H13.969ZM16.4087 30.7606H14.7287V30.1516H18.7817V30.7606H17.1017V35.0516H16.4087V30.7606ZM22.42 33.8266H19.816L19.277 35.0516H18.556L20.775 30.1516H21.468L23.694 35.0516H22.959L22.42 33.8266ZM22.175 33.2666L21.118 30.8656L20.061 33.2666H22.175ZM28.6389 30.1516V35.0516H28.0649L25.1249 31.3976V35.0516H24.4249V30.1516H24.9989L27.9389 33.8056V30.1516H28.6389ZM33.5006 32.5736H34.1726V34.4846C33.9299 34.6853 33.6476 34.8393 33.3256 34.9466C33.0036 35.0539 32.6676 35.1076 32.3176 35.1076C31.8229 35.1076 31.3773 35.0003 30.9806 34.7856C30.5839 34.5663 30.2713 34.2676 30.0426 33.8896C29.8186 33.5069 29.7066 33.0776 29.7066 32.6016C29.7066 32.1256 29.8186 31.6963 30.0426 31.3136C30.2713 30.9309 30.5839 30.6323 30.9806 30.4176C31.3819 30.2029 31.8323 30.0956 32.3316 30.0956C32.7236 30.0956 33.0783 30.1609 33.3956 30.2916C33.7176 30.4176 33.9906 30.6043 34.2146 30.8516L33.7806 31.2856C33.3886 30.9076 32.9149 30.7186 32.3596 30.7186C31.9863 30.7186 31.6503 30.8003 31.3516 30.9636C31.0576 31.1223 30.8266 31.3463 30.6586 31.6356C30.4906 31.9203 30.4066 32.2423 30.4066 32.6016C30.4066 32.9563 30.4906 33.2783 30.6586 33.5676C30.8266 33.8523 31.0576 34.0763 31.3516 34.2396C31.6503 34.4029 31.9839 34.4846 32.3526 34.4846C32.7913 34.4846 33.1739 34.3796 33.5006 34.1696V32.5736Z" fill="black"/>
</svg>
