<svg width="37" height="39" viewBox="0 0 37 39" fill="none" xmlns="http://www.w3.org/2000/svg">
<path fill-rule="evenodd" clip-rule="evenodd" d="M22.3131 4.92009C22.6929 4.9253 23.0735 4.93052 23.4555 4.93442C27.5594 4.93442 30.5516 7.86024 30.5516 11.9007V17.0905C30.5516 21.1309 27.5594 24.0568 23.4555 24.0568C21.8115 24.0916 20.1676 24.1032 18.5118 24.1032C16.8561 24.1032 15.1885 24.0916 13.5445 24.0568C9.4406 24.0568 6.44839 21.1309 6.44839 17.0905V11.9007C6.44839 7.86024 9.4406 4.93442 13.5564 4.93442C15.1057 4.9112 16.6905 4.88798 18.2989 4.88798V4.6906C18.2989 3.88948 17.6248 3.2393 16.8206 3.2393H15.6497C14.3133 3.2393 13.2252 2.17115 13.2252 0.87078C13.2252 0.394754 13.6273 0 14.1122 0C14.6089 0 14.9992 0.394754 14.9992 0.87078C14.9992 1.21909 15.2949 1.49774 15.6497 1.49774H16.8206C18.6064 1.50935 20.0611 2.93743 20.073 4.67899V4.89959C20.8185 4.89959 21.5641 4.90981 22.3131 4.92009ZM17.1162 15.3605H15.8744V16.5912C15.8744 17.0672 15.4723 17.462 14.9874 17.462C14.4906 17.462 14.1003 17.0672 14.1003 16.5912V15.3605H12.8467C12.3618 15.3605 11.9597 14.9773 11.9597 14.4897C11.9597 14.0137 12.3618 13.6189 12.8467 13.6189H14.1003V12.3998C14.1003 11.9238 14.4906 11.529 14.9874 11.529C15.4723 11.529 15.8744 11.9238 15.8744 12.3998V13.6189H17.1162C17.6011 13.6189 18.0032 14.0137 18.0032 14.4897C18.0032 14.9773 17.6011 15.3605 17.1162 15.3605ZM22.1427 13.3983H22.261C22.7459 13.3983 23.148 13.0151 23.148 12.5275C23.148 12.0515 22.7459 11.6567 22.261 11.6567H22.1427C21.646 11.6567 21.2557 12.0515 21.2557 12.5275C21.2557 13.0151 21.646 13.3983 22.1427 13.3983ZM24.1651 17.392H24.2834C24.7683 17.392 25.1704 17.0088 25.1704 16.5212C25.1704 16.0452 24.7683 15.6504 24.2834 15.6504H24.1651C23.6672 15.6504 23.2781 16.0452 23.2781 16.5212C23.2781 17.0088 23.6672 17.392 24.1651 17.392Z" fill="#F96209"/>
<path d="M4.12214 34.8782H1.51814L0.979137 36.1032H0.258137L2.47714 31.2032H3.17014L5.39614 36.1032H4.66114L4.12214 34.8782ZM3.87714 34.3182L2.82014 31.9172L1.76314 34.3182H3.87714ZM7.72309 33.9262L6.82709 34.8362V36.1032H6.12709V31.2032H6.82709V33.9402L9.48709 31.2032H10.2851L8.19209 33.4082L10.4181 36.1032H9.59909L7.72309 33.9262ZM11.8306 31.8122H10.1506V31.2032H14.2036V31.8122H12.5236V36.1032H11.8306V31.8122ZM14.966 31.2032H15.666V36.1032H14.966V31.2032ZM21.3411 31.2032L19.1921 36.1032H18.4991L16.3431 31.2032H17.0991L18.8631 35.2282L20.6411 31.2032H21.3411ZM21.966 31.2032H22.666V36.1032H21.966V31.2032ZM25.1059 31.8122H23.4259V31.2032H27.4789V31.8122H25.7989V36.1032H25.1059V31.8122ZM31.1173 34.8782H28.5133L27.9743 36.1032H27.2533L29.4723 31.2032H30.1653L32.3913 36.1032H31.6563L31.1173 34.8782ZM30.8723 34.3182L29.8153 31.9172L28.7583 34.3182H30.8723ZM34.5502 36.1592C34.1815 36.1592 33.8245 36.1032 33.4792 35.9912C33.1385 35.8745 32.8702 35.7252 32.6742 35.5432L32.9332 34.9972C33.1199 35.1652 33.3579 35.3029 33.6472 35.4102C33.9412 35.5129 34.2422 35.5642 34.5502 35.5642C34.9562 35.5642 35.2595 35.4965 35.4602 35.3612C35.6609 35.2212 35.7612 35.0369 35.7612 34.8082C35.7612 34.6402 35.7052 34.5049 35.5932 34.4022C35.4859 34.2949 35.3505 34.2132 35.1872 34.1572C35.0285 34.1012 34.8022 34.0382 34.5082 33.9682C34.1395 33.8795 33.8409 33.7909 33.6122 33.7022C33.3882 33.6135 33.1945 33.4782 33.0312 33.2962C32.8725 33.1095 32.7932 32.8599 32.7932 32.5472C32.7932 32.2859 32.8609 32.0502 32.9962 31.8402C33.1362 31.6302 33.3462 31.4622 33.6262 31.3362C33.9062 31.2102 34.2539 31.1472 34.6692 31.1472C34.9585 31.1472 35.2432 31.1845 35.5232 31.2592C35.8032 31.3339 36.0435 31.4412 36.2442 31.5812L36.0132 32.1412C35.8079 32.0105 35.5885 31.9125 35.3552 31.8472C35.1219 31.7772 34.8932 31.7422 34.6692 31.7422C34.2725 31.7422 33.9739 31.8145 33.7732 31.9592C33.5772 32.1039 33.4792 32.2905 33.4792 32.5192C33.4792 32.6872 33.5352 32.8249 33.6472 32.9322C33.7592 33.0349 33.8969 33.1165 34.0602 33.1772C34.2282 33.2332 34.4545 33.2939 34.7392 33.3592C35.1079 33.4479 35.4042 33.5365 35.6282 33.6252C35.8522 33.7139 36.0435 33.8492 36.2022 34.0312C36.3655 34.2132 36.4472 34.4582 36.4472 34.7662C36.4472 35.0229 36.3772 35.2585 36.2372 35.4732C36.0972 35.6832 35.8849 35.8512 35.6002 35.9772C35.3155 36.0985 34.9655 36.1592 34.5502 36.1592Z" fill="black"/>
</svg>
